<svg width="18" height="17" viewBox="0 0 18 17" fill="none" xmlns="http://www.w3.org/2000/svg">
<path d="M8.11364 0.700068C8.48749 -0.0166851 9.51318 -0.0166342 9.88696 0.700157L11.8514 4.46722C12.0011 4.75448 12.2808 4.95137 12.6018 4.99552L16.9004 5.5868C17.7377 5.70197 18.0634 6.73949 17.4422 7.31253L14.4042 10.1147C14.1526 10.3468 14.0372 10.6914 14.0982 11.0281L14.8251 15.0381C14.9718 15.8478 14.1324 16.4784 13.3956 16.1118L9.44584 14.1464C9.16527 14.0068 8.83549 14.0068 8.55492 14.1464L4.60432 16.1119C3.86758 16.4785 3.02815 15.8479 3.17491 15.0383L3.90179 11.0281C3.96283 10.6914 3.8474 10.3468 3.59583 10.1147L0.557845 7.31253C-0.0634116 6.73949 0.262283 5.70197 1.09958 5.5868L5.39829 4.99551C5.71921 4.95137 5.99886 4.75451 6.14866 4.4673L8.11364 0.700068Z" fill="#2D647D"/>
</svg>
