<svg width="41" height="40" viewBox="0 0 41 40" fill="none" xmlns="http://www.w3.org/2000/svg">
<path d="M40.9874 13.0456C40.8879 12.8268 40.8023 12.5895 40.704 12.3522C40.6058 12.115 40.495 11.8764 40.3413 11.6576C40 11.1707 39.5718 10.8105 39.0794 10.5757C38.587 10.3409 38.0328 10.2302 37.4384 10.229C36.611 10.2265 35.7823 10.2265 34.9548 10.2265C33.8037 10.2265 32.6527 10.2278 31.5016 10.2278C31.4852 10.2278 31.4688 10.2278 31.4524 10.2278C31.3643 10.2278 31.2736 10.2278 31.1804 10.2278C31.1275 9.62656 30.9776 9.07453 30.7169 8.57907C30.4323 8.03565 30.0167 7.56232 29.4689 7.1689C28.7787 6.6722 27.9878 6.39189 27.1314 6.39312C27.0684 6.39312 27.0042 6.39434 26.9412 6.39803C25.8191 6.4509 24.8544 6.86891 24.1517 7.56601C23.4829 8.22745 23.0547 9.13601 22.9325 10.2032C20.2853 10.2032 17.6393 10.2032 15.0436 10.2032C15.3194 9.60811 15.6418 9.002 15.8421 8.34424C16.0234 7.74673 16.1103 7.14308 16.1103 6.54925C16.1103 4.98294 15.5121 3.48425 14.4996 2.3175C13.4857 1.14953 12.0538 0.313509 10.3863 0.077455C10.3851 0.077455 10.3725 0.0725373 10.3523 0.0614723C10.3322 0.0504073 10.3045 0.0344245 10.2679 0.0172122L10.2289 0H10.1873C9.65839 0 9.12944 0 8.60049 0H8.57153L8.54382 0.00860612C7.8587 0.217612 7.11313 0.35408 6.4255 0.668818C5.21143 1.22699 4.25932 2.09989 3.61072 3.13509C2.96339 4.17028 2.61831 5.37022 2.61831 6.58614C2.61831 7.81558 2.97094 9.06347 3.71651 10.1724C3.72407 10.1835 3.73288 10.1958 3.74044 10.2081C3.3601 10.2376 2.97724 10.256 2.59816 10.3519C1.81229 10.5523 1.16117 10.9789 0.709046 11.5568C0.256919 12.1346 0.00377822 12.8612 0.00377822 13.6567C0.00125941 16.9135 0 20.1703 0 23.4271C0 26.5327 0.00125941 29.6382 0.00377822 32.7438C0.00377822 33.7532 0.386638 34.6236 1.04657 35.2371C1.7065 35.8506 2.6372 36.2022 3.71651 36.2059C4.56157 36.2084 5.40664 36.2096 6.2517 36.2096C7.53755 36.2096 8.82341 36.2072 10.108 36.2072H10.1407C10.2415 36.2072 10.3423 36.2072 10.4493 36.2072C10.4493 36.9252 10.4493 37.6284 10.4493 38.3538C9.65965 38.3538 8.87882 38.3538 8.07406 38.3538H7.88515V38.5382C7.88515 38.9783 7.88515 39.3828 7.88515 39.8156V40H8.07406C16.3484 40 24.629 40 32.9322 40H33.1212V39.8156C33.1212 39.4062 33.1212 39.0005 33.1212 38.5603V38.3759H32.9322C32.1451 38.3759 31.3643 38.3759 30.5583 38.3759C30.5583 37.6518 30.5583 36.9461 30.5583 36.2084C30.6477 36.2084 30.7371 36.2084 30.8265 36.2084C30.9323 36.2084 31.0381 36.2084 31.1439 36.2084C32.2408 36.2084 33.3378 36.2084 34.4347 36.2084C35.373 36.2084 36.3125 36.2084 37.2507 36.2084C37.713 36.2084 38.1638 36.1555 38.5908 36.024C39.019 35.8924 39.4232 35.681 39.7922 35.3699C40.267 34.9679 40.6033 34.4736 40.8124 33.9044C40.8753 33.7335 40.932 33.5639 40.9899 33.3979L41 33.3684V33.3376C41 26.599 41 19.8605 41 13.1206V13.0813L40.9874 13.0456ZM39.2897 32.6811C39.2897 32.9823 39.2419 33.2479 39.1525 33.4766C39.0177 33.8184 38.7948 34.0765 38.4812 34.2585C38.1676 34.4392 37.757 34.5413 37.2545 34.5413C31.7723 34.5413 26.2914 34.5425 20.8092 34.5425C15.1217 34.5425 9.43422 34.5425 3.74548 34.5425C3.19763 34.5425 2.75936 34.4245 2.43443 34.2081C2.10951 33.9905 1.88785 33.6745 1.7745 33.2356C1.71028 32.986 1.71279 32.6959 1.7002 32.3799C14.254 32.3799 26.7498 32.3799 39.2721 32.3799C39.2834 32.4819 39.2897 32.584 39.2897 32.6811ZM14.4001 6.59597C14.3787 9.31182 12.1394 11.4953 9.40147 11.4953C9.37755 11.4953 9.35236 11.4953 9.32843 11.4953C7.92167 11.4756 6.67486 10.9249 5.77816 10.0396C4.88146 9.15445 4.33488 7.93484 4.33488 6.57138C4.33488 6.55663 4.33488 6.54188 4.33488 6.52712C4.35881 3.82235 6.58922 1.67327 9.36747 1.67327H9.39896C12.1671 1.68926 14.4013 3.87767 14.4013 6.55786C14.4013 6.57016 14.4013 6.58368 14.4001 6.59597ZM1.71153 30.6587C1.71153 30.5849 1.71153 30.5099 1.71153 30.4361C1.71153 27.467 1.71783 24.4967 1.71783 21.5276C1.71783 18.9716 1.71279 16.4168 1.69642 13.8608V13.8595V13.8436C1.69642 13.2571 1.89919 12.7715 2.22537 12.4297C2.55156 12.0891 2.99991 11.8912 3.51375 11.8912C3.57546 11.8912 3.63969 11.8937 3.70266 11.8998C3.72785 11.9023 3.75177 11.9035 3.77444 11.9035C3.80215 11.9035 3.82734 11.9023 3.85001 11.901C3.97973 11.8937 4.10819 11.89 4.23413 11.89C4.98725 11.8912 5.66859 12.0289 6.3663 12.4408C7.25293 12.9645 8.22267 13.1772 9.22012 13.176C9.69995 13.176 10.1886 13.1256 10.6785 13.0395C10.8838 13.594 11.0891 14.1472 11.2969 14.7005C11.7893 16.0172 12.2805 17.3352 12.7805 18.6507C12.8082 18.7232 12.8182 18.7724 12.8182 18.8007C12.817 18.8253 12.8145 18.8351 12.8019 18.8585C12.788 18.8806 12.7591 18.9138 12.7036 18.9568C11.9858 19.5064 11.4279 20.1272 11.0488 20.8157C10.6697 21.5042 10.472 22.2616 10.4732 23.0742C10.4732 23.5254 10.5337 23.9926 10.6558 24.4758C10.9354 25.586 11.4656 26.4847 12.2175 27.1535C12.9694 27.8223 13.9391 28.2563 15.0852 28.4555C15.3862 28.5084 15.6847 28.533 15.9806 28.533C17.4226 28.533 18.7626 27.9342 19.7437 26.9765C20.7235 26.0187 21.347 24.6996 21.347 23.2525C21.347 23.1898 21.3457 23.1259 21.3432 23.0632C21.2966 21.7931 20.8293 20.6903 19.9843 19.7006C21.7374 17.8171 23.4879 15.9361 25.2499 14.044C25.8582 14.3107 26.4589 14.4472 27.0521 14.446C27.8417 14.446 28.6125 14.205 29.3669 13.7489C30.5834 14.7878 31.8114 15.8353 33.0481 16.8913C32.8605 17.2971 32.7584 17.7077 32.7584 18.1183C32.7584 18.5585 32.8756 18.9962 33.1161 19.424C33.6237 20.3264 34.5934 20.8428 35.5833 20.8428C36.0027 20.8428 36.4271 20.7493 36.8213 20.5539C37.8099 20.0621 38.3893 19.0847 38.3893 18.0827C38.3893 17.7003 38.3049 17.3143 38.126 16.9516C37.6336 15.9496 36.645 15.3484 35.5997 15.3484C35.2269 15.3484 34.8478 15.4246 34.4838 15.5857C34.3856 15.6287 34.3188 15.6435 34.2735 15.6422C34.2357 15.6422 34.2068 15.6349 34.1652 15.6152C34.1249 15.5955 34.0733 15.5586 34.0103 15.5033C32.8718 14.5111 31.7182 13.5362 30.5608 12.5502C30.664 12.3387 30.756 12.1408 30.8668 11.965C30.8681 11.9625 30.8907 11.9416 30.9184 11.9293C30.9462 11.9158 30.9789 11.9096 30.9814 11.9096C32.1716 11.9059 33.3617 11.9023 34.5506 11.9023C35.5946 11.9023 36.6387 11.9059 37.6827 11.9158C38.0971 11.9195 38.4887 12.1027 38.7809 12.3916C39.0744 12.6817 39.2633 13.0751 39.2797 13.487C39.291 13.7612 39.2935 14.0378 39.2935 14.3157C39.2935 14.5517 39.2922 14.7902 39.2922 15.0287C39.2922 18.0876 39.2922 21.1477 39.2922 24.2065C39.2922 26.2462 39.2922 28.2858 39.2922 30.3255C39.2922 30.4349 39.2922 30.5443 39.2922 30.6611C26.7637 30.6587 14.2666 30.6587 1.71153 30.6587ZM27.0483 8.04918H27.0697C27.7196 8.04918 28.3165 8.3172 28.7535 8.7475C29.1905 9.17904 29.4626 9.7704 29.4626 10.4146V10.4269C29.4563 11.7228 28.3807 12.7764 27.0634 12.7801H27.0546C26.3909 12.7801 25.7914 12.5158 25.3544 12.0867C24.9186 11.6576 24.6491 11.0675 24.6491 10.4134V10.4073C24.6516 9.11757 25.7247 8.06147 27.0483 8.04918ZM19.6493 23.2156C19.6493 24.1955 19.2261 25.1028 18.5473 25.7679C17.8685 26.4331 16.939 26.8535 15.929 26.8609H15.8988C14.8925 26.8609 13.9668 26.4466 13.2905 25.779C12.6155 25.1126 12.1936 24.1967 12.1936 23.2009V23.1972V23.1959C12.1948 21.2153 13.885 19.5715 15.9176 19.5728H15.9189H15.9202C17.9466 19.5728 19.6455 21.2288 19.648 23.2058V23.2156H19.6493ZM18.6707 18.6322C18.0939 18.4011 17.6821 18.2376 17.3169 18.1294C16.9264 18.0126 16.5851 17.9622 16.1771 17.9622C15.7275 17.9622 15.1973 18.0212 14.39 18.1134C13.7011 16.268 13.0097 14.4116 12.3019 12.5158C12.5664 12.3854 12.8019 12.2379 13.0399 12.1211C13.3245 11.9797 13.6066 11.8801 13.9593 11.8801C13.9706 11.8801 13.9819 11.8801 13.9945 11.8801C15.3408 11.9059 16.6859 11.9133 18.0309 11.9133C19.6619 11.9133 21.2915 11.9023 22.92 11.8961H22.9212H22.9262C22.993 11.8961 23.0472 11.8998 23.0912 11.9072C23.1567 11.9195 23.1932 11.9355 23.2285 11.965C23.2638 11.9945 23.3028 12.0436 23.3431 12.1359C23.4892 12.4604 23.7008 12.7334 23.896 13.0198C22.163 14.88 20.415 16.7586 18.6707 18.6322ZM36.6689 18.1196C36.6651 18.4159 36.543 18.6777 36.3452 18.8683C36.1475 19.0576 35.878 19.1744 35.5757 19.1744H35.5644C35.2508 19.1707 34.9813 19.0527 34.7873 18.8597C34.5934 18.6667 34.4763 18.3999 34.475 18.0901V18.0679C34.48 17.7692 34.6035 17.5085 34.7999 17.3204C34.9964 17.1323 35.2672 17.018 35.5745 17.018H35.5795C35.8906 17.0192 36.1588 17.1385 36.354 17.3315C36.548 17.5257 36.6676 17.795 36.6676 18.1048L36.6689 18.1196ZM12.2175 36.2256C17.7425 36.2256 23.2461 36.2256 28.78 36.2256C28.78 36.9215 28.78 37.6186 28.78 38.3329C23.2663 38.3329 17.7539 38.3329 12.2175 38.3329C12.2175 37.6407 12.2175 36.9485 12.2175 36.2256Z" fill="white"/>
</svg>
