<svg width="36" height="36" viewBox="0 0 36 36" fill="none" xmlns="http://www.w3.org/2000/svg">
<path d="M20.6837 35.2338C21.5627 35.7273 22.5062 35.9839 23.5382 35.985C24.2861 35.985 25.0823 35.8493 25.9303 35.5617C26.6114 35.3305 27.2039 35.0198 27.7136 34.6333C28.2233 34.2468 28.6513 33.7831 29.0034 33.2402C29.7064 32.1553 30.1045 30.746 30.1862 29.0147C30.1931 28.8617 30.3059 28.7317 30.4566 28.7018C31.6727 28.4625 32.714 28.0138 33.5631 27.3431C34.4122 26.6713 35.0749 25.7762 35.5271 24.6155C35.847 23.7941 35.9977 23.0003 35.9988 22.2284C35.9988 21.5266 35.8734 20.841 35.6295 20.1668C35.3844 19.4938 35.0209 18.8312 34.5411 18.1823C34.4536 18.0638 34.4536 17.9028 34.5411 17.7843C35.0197 17.1401 35.3844 16.4809 35.6295 15.8079C35.8746 15.1349 36 14.4469 36 13.7429C36 12.9687 35.8481 12.1714 35.526 11.3477C35.0738 10.1915 34.4145 9.29882 33.5769 8.63043C32.7393 7.96204 31.7188 7.51683 30.5371 7.28329C30.3979 7.25568 30.2909 7.14294 30.2713 7.00374C30.2115 6.58959 30.1781 6.18464 30.1321 5.8004C30.0861 5.41501 30.0274 5.05033 29.9227 4.71326C29.5108 3.38453 28.8619 2.34685 27.9817 1.57722C27.1004 0.805292 25.9809 0.297958 24.6025 0.0598217C24.5277 0.0471671 24.4759 0.0230083 24.438 0.0069025C24.4334 0.00460167 24.4288 0.00230083 24.4242 0C23.9363 0 23.4496 0 22.9618 0C22.5269 0.104688 22.1058 0.182916 21.7226 0.308312C21.0553 0.526891 20.4536 0.831752 19.9151 1.22289C19.3755 1.61404 18.898 2.09146 18.4804 2.65861C18.4309 2.72649 18.3803 2.79321 18.3285 2.85879C18.2871 2.94622 18.21 3.01064 18.1168 3.03595C18.1076 3.0394 18.0972 3.04285 18.088 3.04515C18.0685 3.04976 18.05 3.05321 18.0098 3.05436C17.9994 3.05436 17.9868 3.05436 17.9672 3.05206C17.9476 3.04976 17.9235 3.0463 17.8821 3.0302C17.8545 3.01869 17.8176 3.00144 17.7751 2.96002C17.7509 2.93701 17.7267 2.9048 17.7072 2.86569C17.7072 2.86454 17.706 2.86339 17.706 2.86224C17.2562 2.38136 16.8581 1.90624 16.4162 1.52085C15.4843 0.708657 14.4005 0.226632 13.1648 0.0621225C13.0819 0.0506184 13.0255 0.0253092 12.9864 0.0069025C12.9818 0.00460167 12.9772 0.00230083 12.9726 0C12.4848 0 11.9981 0 11.5102 0C11.1478 0.0851309 10.7957 0.154156 10.4655 0.250791C9.07105 0.655738 7.90553 1.48634 7.08632 2.57808C6.26827 3.67098 5.79769 5.02502 5.79654 6.47915V6.4941C5.79654 6.54702 5.79654 6.59879 5.79654 6.64941C5.79654 6.73684 5.79654 6.81852 5.79654 6.88755C5.79654 7.0325 5.7045 7.1602 5.56758 7.20506C5.24772 7.3109 4.93477 7.39718 4.63907 7.48806C4.34338 7.57895 4.06379 7.67558 3.80722 7.79753C2.73949 8.30601 1.90073 8.97325 1.27828 9.79925C0.655822 10.6287 0.247371 11.6192 0.0598293 12.7938C0.0471731 12.8697 0.0241618 12.9226 0.00690338 12.9606C0.00460226 12.9664 0.00230113 12.971 0 12.9756C0 13.4645 0 13.9523 0 14.4412C0.0563776 14.6954 0.108153 14.9462 0.166832 15.189C0.398095 16.1369 0.8169 16.9859 1.44051 17.7728C1.536 17.8936 1.53715 18.065 1.44166 18.1869C0.888235 18.8944 0.474032 19.6606 0.238167 20.5142C0.148423 20.8375 0.0805395 21.178 0 21.5278C0 22.0282 0 22.5275 0 23.0279C0.0851417 23.3949 0.147272 23.7481 0.248522 24.0633C0.645466 25.2977 1.25066 26.2824 2.06411 27.0348C2.87756 27.7872 3.90501 28.3141 5.17063 28.612C5.29029 28.6396 5.40535 28.6695 5.51235 28.696C5.66078 28.7328 5.76548 28.8663 5.76663 29.0181C5.77468 30.2571 5.98293 31.3569 6.39714 32.2957C6.81249 33.2355 7.43034 34.0178 8.28061 34.6356C8.84784 35.0475 9.52092 35.3845 10.3091 35.6388C11.0684 35.8838 11.7875 36 12.4664 36C13.495 36 14.4373 35.7366 15.3117 35.2384C16.185 34.7391 16.9881 34.0006 17.7164 33.0469C17.7797 32.9641 17.8775 32.9157 17.981 32.9157C18.0846 32.9157 18.1824 32.9629 18.2468 33.0446C18.9924 34.0052 19.8047 34.7391 20.6837 35.2338ZM17.2458 29.4173C17.2447 30.6322 16.8477 31.74 16.1505 32.6074C15.4544 33.476 14.4591 34.1041 13.2775 34.3722C12.9346 34.4504 12.5895 34.4872 12.2489 34.4872C11.0443 34.4872 9.8937 34.0247 9.00546 33.2574C8.11723 32.4901 7.48672 31.411 7.3406 30.1731C7.30378 29.8568 7.29803 29.5496 7.28652 29.2574C7.28652 29.2459 7.28537 29.2332 7.28537 29.2217C7.28537 29.1401 7.29688 29.0526 7.33254 28.9652C7.36706 28.8789 7.42804 28.7984 7.49823 28.7409C7.5454 28.7029 7.59487 28.6741 7.64435 28.6523C7.70993 28.6224 7.77551 28.604 7.84109 28.5902C8.99856 28.344 10.0019 27.8159 10.8717 27.0095C11.0143 26.8772 11.1144 26.746 11.1766 26.6241C11.2387 26.5022 11.2652 26.3917 11.2652 26.2882C11.2652 26.21 11.2502 26.1352 11.218 26.0569C11.1858 25.9799 11.1352 25.8993 11.0615 25.8177C10.9833 25.7325 10.9039 25.675 10.8211 25.637C10.7394 25.5991 10.6542 25.5818 10.5622 25.5807C10.4621 25.5807 10.3516 25.6037 10.232 25.6566C10.1135 25.7095 9.9869 25.7912 9.85918 25.9085C8.87775 26.8093 7.65815 27.2522 6.45236 27.2511C5.69414 27.2511 4.94052 27.0774 4.25133 26.7334C3.5633 26.3906 2.93969 25.8786 2.4461 25.2068C1.80063 24.3302 1.48423 23.3086 1.48423 22.2905C1.48423 20.979 2.00888 19.6721 3.01793 18.677C3.10422 18.5919 3.18706 18.4895 3.25495 18.3814C3.32283 18.2732 3.37575 18.1605 3.40452 18.0581C3.41948 18.0063 3.42523 17.9603 3.42523 17.9166C3.42523 17.8269 3.40107 17.7417 3.34814 17.6462C3.29522 17.5508 3.21122 17.4507 3.10422 17.3517C2.6601 16.941 2.30458 16.4774 2.0411 15.9655C1.77762 15.4536 1.60849 14.8933 1.53025 14.2916C1.50379 14.0857 1.48998 13.8798 1.48998 13.675C1.48998 12.5499 1.88462 11.4731 2.55655 10.6126C3.22733 9.75324 4.18 9.1067 5.29835 8.85476C5.71485 8.76043 6.12215 8.71326 6.5191 8.71326C7.1496 8.71326 7.7548 8.8329 8.32433 9.06989C8.89386 9.30687 9.42657 9.65775 9.92131 10.1156C10.0237 10.21 10.1238 10.2778 10.2193 10.3215C10.316 10.3653 10.4069 10.386 10.507 10.386C10.5863 10.386 10.6703 10.3722 10.767 10.3399C10.9177 10.2882 11.0178 10.2146 11.0949 10.1202C11.1708 10.0247 11.2249 9.90164 11.2502 9.73713C11.2571 9.69571 11.2594 9.65775 11.2594 9.62094C11.2594 9.5174 11.2376 9.42767 11.1938 9.33679C11.1501 9.24705 11.0834 9.15617 10.989 9.06529C10.11 8.21398 9.086 7.65027 7.89747 7.38798C7.79967 7.36612 7.70763 7.33736 7.61904 7.28674C7.53044 7.23727 7.44645 7.16135 7.39122 7.07161C7.3544 7.01179 7.32909 6.94967 7.31298 6.88985C7.29112 6.80932 7.28307 6.73339 7.27847 6.65631C7.27387 6.57693 7.27272 6.49756 7.27272 6.41933C7.27387 5.21369 7.75365 4.06903 8.52683 3.18781C9.30116 2.30774 10.3758 1.68421 11.5804 1.54156C11.8036 1.5151 12.0245 1.50244 12.242 1.50244C13.4294 1.50244 14.5236 1.89014 15.383 2.58154C16.2437 3.27294 16.8684 4.2669 17.1307 5.46103C17.2193 5.86368 17.2447 6.27437 17.2458 6.66667C17.2504 8.77883 17.2504 10.8898 17.2504 13.002C17.2504 14.6701 17.2493 16.3382 17.2493 18.0063C17.2493 20.2542 17.2504 22.5033 17.2504 24.7524C17.2481 26.3066 17.2481 27.8619 17.2458 29.4173ZM18.7473 28.681C18.7473 27.8596 18.7853 27.0383 18.7853 26.2123C18.7853 26.1237 18.8209 26.0385 18.8831 25.9753C18.9452 25.9131 19.0315 25.8775 19.1201 25.8775C19.4537 25.8775 19.792 25.8752 20.1337 25.8752C20.4835 25.8752 20.8356 25.8775 21.1899 25.8901C21.2624 25.8924 21.3223 25.9108 21.3717 25.9316C21.4212 25.9523 21.4638 25.9776 21.5006 26.004C21.5754 26.0581 21.6364 26.1179 21.6893 26.1846C21.7249 26.2295 21.756 26.2755 21.7825 26.3296C22.0103 26.7829 22.2922 27.1395 22.635 27.411C22.9791 27.6825 23.3864 27.8712 23.8811 27.9747C24.0652 28.0127 24.2493 28.0311 24.4322 28.0311C25.0834 28.0311 25.7186 27.7975 26.2248 27.3983C26.7311 26.998 27.105 26.4366 27.2454 25.7831C27.2902 25.5726 27.3121 25.3621 27.3121 25.155C27.3121 24.4878 27.0866 23.8527 26.6954 23.3489C26.3042 22.845 25.7531 22.4734 25.095 22.325C24.8671 22.2744 24.6416 22.2491 24.4207 22.2491C23.8627 22.2491 23.3334 22.4055 22.8801 22.6943C22.4279 22.983 22.0517 23.4029 21.802 23.9379C21.771 24.0058 21.7353 24.0713 21.6858 24.1357C21.6375 24.2002 21.5731 24.2634 21.4948 24.3095C21.4431 24.3405 21.3855 24.3635 21.3292 24.3796C21.2532 24.4003 21.1784 24.4072 21.1036 24.4072C21.0933 24.4072 21.0818 24.4072 21.0714 24.4072C20.7907 24.3992 20.5077 24.3969 20.2212 24.3969C19.8507 24.3969 19.4744 24.4003 19.0867 24.4003C18.9981 24.4003 18.913 24.3647 18.8497 24.3026C18.7876 24.2404 18.7519 24.1542 18.7519 24.0656C18.7519 22.4032 18.7519 20.7535 18.7519 19.0716C18.7519 18.8933 18.8923 18.746 19.0706 18.738C19.1672 18.7334 19.2869 18.723 19.4215 18.7219C19.6102 18.7219 19.7978 18.7219 19.9864 18.7219C20.5146 18.7219 21.0427 18.7219 21.5708 18.7219C22.3451 18.7219 23.1183 18.7207 23.8915 18.7173H23.8892H23.9018C23.9801 18.7173 24.0606 18.7219 24.1469 18.7403C24.232 18.7587 24.3241 18.7944 24.4035 18.8519C24.4575 18.8898 24.5047 18.9359 24.545 18.9853C24.5991 19.0521 24.6405 19.1245 24.6761 19.2028C24.9178 19.7274 25.2963 20.1438 25.7508 20.4326C26.2064 20.7202 26.738 20.8778 27.2879 20.8778C27.5249 20.8778 27.7654 20.849 28.0047 20.788C28.6594 20.6212 29.1979 20.2508 29.5776 19.7481C29.9561 19.2453 30.1747 18.608 30.1747 17.9062C30.1747 17.8464 30.1735 17.7854 30.1701 17.7233C30.1367 17.094 29.8537 16.4901 29.4027 16.0161C28.9528 15.5433 28.3418 15.2074 27.6711 15.1096C27.5411 15.09 27.4099 15.0808 27.2799 15.0808C26.7426 15.0808 26.211 15.2407 25.7554 15.5295C25.2998 15.8182 24.9201 16.2347 24.6842 16.7443C24.6439 16.8318 24.5968 16.9134 24.5335 16.9871C24.4713 17.0607 24.3908 17.1263 24.3011 17.1688C24.2424 17.1976 24.1814 17.216 24.1216 17.2286C24.0422 17.2448 23.9662 17.2494 23.8892 17.2494H23.8742C23.147 17.2436 22.4199 17.2413 21.6927 17.2413C20.9426 17.2413 20.1924 17.2425 19.4411 17.2425C19.3249 17.2425 19.2087 17.2425 19.0764 17.2425C18.9878 17.2425 18.9026 17.2068 18.8393 17.1447C18.7772 17.0825 18.7415 16.9963 18.7415 16.9077C18.7415 15.2315 18.7415 13.591 18.7415 11.9011C18.7415 11.8125 18.7772 11.7274 18.8393 11.6641C18.9015 11.602 18.9878 11.5663 19.0764 11.5663C19.402 11.5663 19.7299 11.5651 20.0589 11.5651C20.4662 11.5651 20.8758 11.5674 21.2866 11.5789C21.3568 11.5812 21.4131 11.6008 21.4569 11.6227C21.5006 11.6445 21.5317 11.6687 21.557 11.6905C21.6087 11.7366 21.641 11.778 21.6697 11.8194C21.7261 11.8999 21.7664 11.9793 21.7951 12.0357C22.0506 12.5372 22.3704 12.9249 22.757 13.2022C23.1436 13.4783 23.5992 13.6485 24.1503 13.698C24.2596 13.7072 24.3655 13.713 24.469 13.713C24.9856 13.713 25.4355 13.5968 25.8336 13.3724C26.2306 13.147 26.5792 12.811 26.8737 12.3497C27.1775 11.8746 27.319 11.35 27.3201 10.8289C27.3201 10.3273 27.1867 9.83031 26.9359 9.39316C26.6839 8.95485 26.3146 8.57636 25.8394 8.30716C25.3895 8.05292 24.904 7.93328 24.4242 7.93328C23.8984 7.93328 23.3806 8.07823 22.9319 8.34973C22.4843 8.62238 22.1058 9.01927 21.855 9.53121C21.8101 9.62209 21.7606 9.70722 21.6985 9.78545C21.6364 9.86368 21.5581 9.935 21.4661 9.98792C21.4051 10.0236 21.3384 10.0489 21.2716 10.0673C21.1819 10.0903 21.0921 10.0995 21.0012 10.0995C20.9782 10.0995 20.9552 10.0995 20.9311 10.0984C20.6825 10.0869 20.4329 10.0846 20.1774 10.0846C19.8162 10.0846 19.4445 10.0915 19.0568 10.0915C18.9682 10.0915 18.8831 10.0558 18.8198 9.99367C18.7565 9.93155 18.722 9.84527 18.722 9.75669C18.722 9.29882 18.7116 8.84901 18.7116 8.39804C18.7116 8.11274 18.7162 7.82629 18.7289 7.53983C18.7473 7.14524 18.7519 6.73454 18.7772 6.31924C18.8025 5.90279 18.8497 5.48174 18.9601 5.06644C19.242 4.00115 19.8863 3.10383 20.7251 2.47455C21.5639 1.84527 22.6005 1.47944 23.6752 1.47944C23.7557 1.47944 23.8362 1.48174 23.9168 1.48519C25.0765 1.54501 26.1443 1.99827 26.9738 2.71729C27.8034 3.43745 28.3971 4.42565 28.6065 5.55651C28.6606 5.84757 28.6859 6.13863 28.6859 6.42623C28.6859 6.84728 28.6318 7.26488 28.5386 7.67673C28.5121 7.79177 28.5006 7.89531 28.5006 7.9885C28.5018 8.17601 28.5466 8.31291 28.6191 8.4153C28.6916 8.51769 28.7963 8.59822 28.9585 8.65229C29.0655 8.68795 29.199 8.70866 29.3555 8.70866H29.3681C29.382 8.70866 29.3958 8.70866 29.4096 8.70866C30.6269 8.70866 31.7475 9.10555 32.6231 9.80615C33.4998 10.5056 34.1303 11.5111 34.3754 12.7064C34.4502 13.0687 34.487 13.4231 34.487 13.7682C34.487 14.4308 34.3501 15.0624 34.0889 15.6503C33.8277 16.2393 33.4434 16.7834 32.9545 17.285C32.867 17.3747 32.7819 17.4794 32.714 17.5876C32.645 17.6957 32.5932 17.8073 32.5644 17.9085C32.5495 17.9603 32.5437 18.0063 32.5437 18.05C32.5437 18.1398 32.5679 18.2249 32.6219 18.3204C32.6749 18.4159 32.7589 18.5171 32.867 18.616C33.3123 19.0267 33.6678 19.4904 33.9301 20.0035C34.1925 20.5165 34.3616 21.0768 34.4398 21.6785C34.4663 21.8844 34.479 22.0903 34.479 22.2939C34.479 23.419 34.0843 24.4958 33.4124 25.354C32.7404 26.2123 31.7878 26.8565 30.6671 27.1096C30.2345 27.2074 29.7916 27.2465 29.3612 27.2545C29.1277 27.2591 28.9482 27.3097 28.8193 27.3834C28.6905 27.4582 28.6099 27.5513 28.5558 27.6779C28.5213 27.7619 28.4995 27.8643 28.4995 27.9862C28.4995 28.0725 28.5098 28.168 28.534 28.2738C28.626 28.6868 28.6709 29.0952 28.6709 29.4944C28.6709 30.6678 28.2832 31.7584 27.5894 32.6212C26.8967 33.484 25.8992 34.1168 24.6992 34.3825C24.3666 34.4561 24.0307 34.4918 23.6993 34.4918C22.7938 34.4918 21.9136 34.2307 21.1543 33.7774C20.3949 33.3241 19.7529 32.6776 19.3283 31.8953C19.0453 31.3742 18.86 30.7944 18.8037 30.1754C18.7611 29.675 18.7473 29.178 18.7473 28.681ZM24.3851 23.7331C24.3862 23.7331 24.3851 23.7331 24.3851 23.7331C24.4012 23.732 24.4161 23.732 24.4311 23.732C24.713 23.732 24.9753 23.8263 25.1939 23.977C25.4125 24.1277 25.5908 24.3348 25.7048 24.5787C25.7807 24.742 25.8267 24.9226 25.8313 25.1113C25.8313 25.1217 25.8313 25.132 25.8313 25.1424C25.8313 25.4265 25.7358 25.6911 25.5839 25.9108C25.4321 26.1306 25.2227 26.3089 24.9753 26.4216C24.8108 26.4964 24.629 26.5413 24.4391 26.5436H24.438H24.4219C24.1354 26.5436 23.8685 26.4469 23.6475 26.2928C23.4266 26.1386 23.2483 25.9281 23.1367 25.6785C23.0631 25.514 23.0205 25.3322 23.0193 25.1424V25.1378V25.1366V25.1355C23.0193 24.8548 23.1114 24.5913 23.2598 24.3716C23.4082 24.153 23.6142 23.9747 23.8569 23.8596C24.0192 23.786 24.1975 23.74 24.3851 23.7331ZM27.2948 16.5775C27.5813 16.5798 27.8483 16.6764 28.068 16.8306C28.2889 16.9848 28.4661 17.1953 28.5766 17.4438C28.6502 17.6094 28.6928 17.7912 28.6928 17.981V18.004L28.358 17.9983L28.6928 18.004C28.687 18.2893 28.5892 18.5528 28.435 18.7714C28.2809 18.9899 28.0703 19.1659 27.8252 19.2752C27.6607 19.3477 27.4801 19.3903 27.2925 19.3903C27.2799 19.3903 27.2672 19.3903 27.2546 19.3903C26.9715 19.3811 26.7092 19.281 26.4929 19.128C26.2766 18.9738 26.1028 18.7645 25.9947 18.5194C25.9234 18.3561 25.8808 18.1766 25.8808 17.9902C25.8808 17.973 25.8808 17.9557 25.8819 17.9385C25.8934 17.6578 25.9947 17.3978 26.1489 17.1826C26.303 16.9687 26.5124 16.7961 26.7575 16.6891C26.9209 16.6178 27.1004 16.5775 27.2868 16.5775H27.2948ZM24.4311 9.42192C24.7176 9.42307 24.9845 9.52085 25.2054 9.67386C25.4263 9.82801 25.6047 10.0385 25.7151 10.287C25.7887 10.4527 25.8313 10.6345 25.8313 10.8254V10.8473C25.8267 11.1326 25.7278 11.3972 25.5736 11.6158C25.4194 11.8343 25.2089 12.0104 24.9626 12.1196C24.7981 12.1921 24.6175 12.2347 24.4288 12.2347C24.4173 12.2347 24.4046 12.2347 24.3931 12.2347C24.1112 12.2266 23.85 12.1277 23.6337 11.9747C23.4174 11.8217 23.2437 11.6123 23.1344 11.3673C23.0619 11.2039 23.0205 11.0244 23.0182 10.8369V10.8381V10.8369V10.8277C23.0182 10.5413 23.1148 10.2732 23.2679 10.0523C23.422 9.83146 23.6337 9.652 23.8823 9.54156C24.0479 9.46793 24.232 9.42422 24.423 9.42422L24.4311 9.42192Z" fill="white"/>
</svg>
