<svg width="49" height="50" viewBox="0 0 49 50" fill="none" xmlns="http://www.w3.org/2000/svg">
<path d="M6.01631 39.8486C5.99255 39.026 6.22613 38.2828 6.68009 37.6218C6.85693 37.3646 6.83053 37.1963 6.67349 36.954C5.18229 34.6491 4.1556 32.1436 3.61454 29.4361C3.54988 29.1116 3.42187 28.9784 3.09064 28.911C1.27612 28.5421 -0.00526236 26.8835 1.62484e-05 24.9596C0.00529485 23.0855 1.30779 21.4457 3.11703 21.0795C3.42583 21.0162 3.54856 20.8937 3.61058 20.584C4.15692 17.8604 5.18361 15.3374 6.68933 13.0203C6.83581 12.7955 6.85033 12.638 6.69593 12.3956C5.63361 10.7195 5.82892 8.69593 7.1644 7.32268C8.48669 5.96288 10.4939 5.7542 12.1395 6.82723C12.3704 6.97802 12.5261 6.98609 12.7531 6.83261C15.0229 5.29511 17.492 4.23959 20.163 3.68624C20.4533 3.62566 20.5958 3.51795 20.6592 3.19214C21.0247 1.31805 22.6307 0 24.5007 0C26.3733 0 27.9674 1.31536 28.3448 3.19349C28.4016 3.47622 28.49 3.60412 28.7935 3.66874C31.4737 4.23959 33.9678 5.27895 36.2482 6.83261C36.4712 6.98475 36.6283 6.97936 36.8618 6.82723C38.514 5.7542 40.5054 5.96154 41.8369 7.32537C43.1685 8.6892 43.3638 10.7208 42.3028 12.3983C42.1484 12.642 42.1682 12.8022 42.3133 13.0244C43.819 15.3414 44.8431 17.8658 45.3907 20.5894C45.4541 20.9031 45.5808 21.0189 45.8869 21.0821C47.7107 21.4537 49.0026 23.103 49 25.0175C48.9974 26.8983 47.7001 28.5516 45.9015 28.9137C45.5663 28.981 45.4449 29.1251 45.3815 29.4428C44.8405 32.1503 43.8124 34.6558 42.3212 36.9607C42.1629 37.2071 42.1576 37.3714 42.3226 37.6285C43.3756 39.2751 43.1566 41.3471 41.8132 42.6988C40.4777 44.0411 38.4745 44.2497 36.879 43.1848C36.6269 43.0165 36.4646 43.0219 36.2244 43.1835C33.9784 44.6927 31.545 45.7482 28.907 46.2948C28.5718 46.3648 28.4029 46.486 28.3237 46.8818C27.9568 48.7317 26.3218 50.012 24.4215 49.9999C22.6228 49.9878 21.0115 48.6482 20.6618 46.828C20.5945 46.4793 20.4375 46.3621 20.1353 46.3002C17.4788 45.7549 15.0256 44.7021 12.7703 43.1767C12.4918 42.9882 12.3229 43.0636 12.0748 43.2198C10.7631 44.0438 9.39989 44.1138 8.05121 43.3477C6.72364 42.5924 6.05986 41.3982 6.01631 39.8486ZM18.6269 25.4173C17.6807 26.3342 16.592 26.7138 15.3383 26.6007C14.2615 29.8979 13.1952 33.1641 12.1751 36.2876C12.6634 36.7453 13.0725 37.129 13.5674 37.5922C14.7524 37.059 16.146 36.4316 17.5395 35.8056C20.0178 34.6922 22.4948 33.5747 24.9797 32.4775C25.274 32.3469 25.3254 32.2055 25.3175 31.8864C25.3043 31.3573 25.4178 30.8269 25.4482 30.2951C25.4574 30.1443 25.4125 29.9114 25.3109 29.8427C23.0979 28.3631 20.8743 26.8996 18.6269 25.4173ZM13.6201 41.7967C15.7105 43.2265 18.099 44.2336 20.7093 44.76C21.4839 42.8011 22.8867 41.8304 24.9731 41.93C25.7372 39.5888 26.4973 37.2623 27.2363 34.9978C26.847 34.6289 26.5224 34.2977 26.17 34.0015C26.075 33.9207 25.8691 33.8763 25.7623 33.9234C21.8983 35.644 18.0397 37.3754 14.1849 39.1162C14.0688 39.1687 13.9487 39.3357 13.9276 39.4649C13.8128 40.1986 13.7297 40.9364 13.6201 41.7967ZM32.5505 29.2167C35.2809 28.1032 37.9743 26.9952 40.6783 25.9128C41.0333 25.7701 41.1428 25.591 41.1111 25.2154C41.0794 24.8546 41.1322 24.4857 41.1494 24.0885C37.8041 22.5375 34.4442 20.9758 31.0765 19.4302C30.9788 19.3858 30.7888 19.4679 30.678 19.5446C30.1686 19.9028 29.6645 20.2717 29.1749 20.6581C29.0601 20.7483 28.9347 20.9287 28.9426 21.0579C28.9862 21.7432 29.068 22.4258 29.1406 23.1097C29.2804 24.4264 29.4137 25.7445 29.576 27.0585C29.5945 27.2133 29.7595 27.4489 29.8875 27.4732C30.9973 27.6818 31.8617 28.2648 32.5505 29.2167ZM14.0319 11.0062C17.3732 12.2462 20.8334 13.5292 24.2803 14.8083C24.4492 14.5928 24.5746 14.4151 24.7171 14.2549C24.8609 14.0947 24.9995 13.8914 25.1829 13.812C25.9602 13.4781 25.8995 12.9369 25.7002 12.2408C25.3083 10.8662 25.0008 9.46603 24.663 8.09277C22.5898 7.92583 21.8746 7.41153 20.6895 5.26279C18.3155 5.66131 14.6006 7.25536 13.6096 8.24626C13.7521 9.17522 13.8827 10.0248 14.0319 11.0062ZM31.5107 15.6322C31.5489 16.4144 31.5832 17.1226 31.6189 17.8698C34.9932 19.4342 38.4203 21.0229 41.7116 22.5496C42.4783 22.0003 43.1421 21.5251 43.8507 21.0175C43.3387 18.4541 42.3595 15.9998 40.8643 13.7541C39.1791 14.5269 37.6695 14.3236 36.2931 13.1105C36.2099 13.0365 35.9843 13.0392 35.8761 13.1011C34.4033 13.9426 32.9372 14.8015 31.5107 15.6322ZM41.7036 27.3964C41.7142 27.3533 41.7261 27.3089 41.7366 27.2658C41.7208 27.2658 41.7036 27.2618 41.6904 27.2658C38.9337 28.3873 36.1756 29.5048 33.4268 30.6451C33.3067 30.6949 33.2262 30.9332 33.1932 31.0975C33.0586 31.7612 32.9412 32.429 32.8369 33.0981C32.8158 33.2354 32.8197 33.4468 32.9016 33.5182C34.1051 34.5818 35.3231 35.6265 36.5464 36.6834C37.9096 35.675 39.3375 35.5242 40.8657 36.2458C42.3595 33.9773 43.3519 31.5296 43.8415 28.9972C43.0853 28.4317 42.3951 27.9148 41.7036 27.3964ZM13.7957 26.143C13.3773 25.7337 12.8996 25.4496 12.6964 25.0282C12.3018 24.2056 11.7845 24.1598 11.0151 24.3753C9.99638 24.6593 8.94461 24.8195 7.92188 25.0309C7.78728 26.8794 7.171 27.7276 5.1361 28.9003C5.65472 31.5471 6.64182 33.9975 8.05781 36.13C8.96837 35.9766 9.78391 35.8406 10.6773 35.6898C11.7 32.5569 12.7558 29.3257 13.7957 26.143ZM28.7684 35.4919C28.0057 37.8278 27.2469 40.1556 26.4841 42.4914C27.3973 43.034 27.937 43.8351 28.2894 44.7694C30.9287 44.2161 33.3225 43.2198 35.5303 41.6931C34.9655 40.5164 34.9035 39.3545 35.4313 38.1751C35.4722 38.0849 35.4393 37.891 35.3693 37.8305C34.15 36.7588 32.92 35.6992 31.7033 34.6477C30.3388 35.4259 30.2517 35.4515 28.7684 35.4919ZM35.5277 8.30146C33.3014 6.77203 30.9023 5.76363 28.4055 5.25741C27.9713 5.87133 27.6916 6.60643 27.1677 6.93089C26.1977 7.5327 26.2941 8.22337 26.558 9.12272C26.9222 10.364 27.1928 11.635 27.4976 12.8763C28.9307 12.9826 29.3148 13.1482 30.4431 14.0718C30.5354 14.1486 30.7545 14.1714 30.8561 14.1136C32.2602 13.3138 33.6577 12.4993 35.0473 11.6754C35.1463 11.6161 35.2677 11.4276 35.2413 11.3442C34.9154 10.2981 35.0592 9.29774 35.5277 8.30146ZM13.4393 19.344C12.6647 17.649 11.9006 15.9674 11.1234 14.2926C11.0811 14.2024 10.9135 14.096 10.833 14.1162C9.89608 14.3438 9.01324 14.1647 8.13699 13.746C6.63786 16.02 5.6468 18.4676 5.1295 21.1441C6.19842 21.5453 7.01132 22.2063 7.52071 23.2322C7.56162 23.3144 7.74241 23.3884 7.84007 23.3696C9.17159 23.1057 10.4992 22.8256 11.836 22.5469C11.894 21.2235 12.4311 20.172 13.4393 19.344ZM26.3587 28.5704C26.8061 28.2904 27.1756 27.9928 27.5939 27.8178C27.9463 27.6697 28.007 27.4785 27.9674 27.1366C27.7628 25.3715 27.5675 23.6052 27.3801 21.8374C27.293 21.0108 27.3076 21 26.5514 20.7873C25.6963 20.5476 25.0378 20.0132 24.4769 19.3535C22.8498 20.1289 21.2609 20.8856 19.6958 21.6314C19.7182 22.0273 19.7671 22.3787 19.7473 22.7247C19.7275 23.072 19.614 23.414 19.5902 23.7613C19.581 23.9067 19.6549 24.1262 19.7644 24.2002C21.9656 25.6731 24.176 27.1285 26.3587 28.5704ZM12.4707 13.3529C12.8811 14.2468 13.2849 15.126 13.6874 16.0065C14.0886 16.8843 14.4898 17.7608 14.8118 18.4649C15.6854 18.582 16.4679 18.5564 17.1462 18.8163C17.843 19.0828 18.4369 19.6281 19.1363 20.0926C20.6235 19.3831 22.2216 18.6197 23.7656 17.8819C23.7445 17.4592 23.6904 17.1226 23.7208 16.7941C23.7524 16.4454 23.6363 16.3067 23.3169 16.1896C20.3226 15.0923 17.3257 14.0018 14.3525 12.8453C13.6017 12.5532 13.0144 12.4428 12.5459 13.2317C12.5275 13.26 12.5103 13.2883 12.4707 13.3529ZM22.1319 4.05648C22.1504 5.35838 23.2444 6.45833 24.5125 6.44891C25.7834 6.43948 26.8694 5.32473 26.8681 4.0309C26.8668 2.7142 25.7438 1.58597 24.4624 1.61559C23.1837 1.64387 22.1134 2.76401 22.1319 4.05648ZM27.6586 19.3508C28.9268 19.3521 30.0194 18.2454 30.03 16.9476C30.0406 15.6524 28.965 14.5363 27.6876 14.5161C26.4023 14.4959 25.2845 15.6282 25.2925 16.9422C25.3004 18.2427 26.3891 19.3494 27.6586 19.3508ZM13.438 22.5469C13.4156 23.8381 14.4819 24.9609 15.7619 24.9959C17.0209 25.0296 18.1307 23.9431 18.1743 22.6358C18.2165 21.3326 17.1199 20.1774 15.8253 20.1626C14.5571 20.1491 13.4605 21.2437 13.438 22.5469ZM1.58228 24.9555C1.55061 26.2426 2.61293 27.3722 3.89695 27.4153C5.15589 27.457 6.26836 26.3786 6.31851 25.0659C6.36865 23.7667 5.27466 22.6048 3.98009 22.582C2.71322 22.5604 1.61395 23.6482 1.58228 24.9555ZM42.6815 24.9421C42.6406 26.2278 43.695 27.3601 44.9817 27.4139C46.238 27.4664 47.3544 26.3948 47.4151 25.0794C47.4745 23.7829 46.3884 22.6156 45.0899 22.582C43.8283 22.5496 42.7224 23.6321 42.6815 24.9421ZM29.2448 29.0336C27.974 29.0322 26.8853 30.1348 26.8747 31.4354C26.8642 32.7292 27.9384 33.8467 29.2158 33.8682C30.4972 33.8898 31.6189 32.7521 31.6109 31.4408C31.603 30.1389 30.517 29.0349 29.2448 29.0336ZM24.5046 43.5497C23.2338 43.5456 22.1438 44.6469 22.1319 45.9488C22.12 47.2426 23.1929 48.3601 24.4703 48.3843C25.7504 48.4086 26.8747 47.2709 26.8681 45.9596C26.8628 44.6617 25.7754 43.5537 24.5046 43.5497ZM7.60649 10.1877C7.61441 11.4923 8.69784 12.5895 9.97394 12.5855C11.2553 12.5814 12.3322 11.4869 12.3388 10.1823C12.3454 8.86153 11.2408 7.74408 9.94359 7.76158C8.66089 7.77773 7.59857 8.88172 7.60649 10.1877ZM41.3948 10.1513C41.383 8.84268 40.3061 7.75754 39.0234 7.76023C37.746 7.76427 36.6679 8.86287 36.6639 10.1661C36.6599 11.4842 37.779 12.6124 39.063 12.5841C40.3536 12.5572 41.4067 11.4572 41.3948 10.1513ZM9.94887 42.237C11.2276 42.2505 12.3084 41.1734 12.3388 39.8594C12.3678 38.5507 11.2619 37.4104 9.96734 37.4118C8.68728 37.4144 7.61045 38.5104 7.60649 39.8149C7.60121 41.1222 8.66749 42.2235 9.94887 42.237ZM39.0089 42.237C40.2877 42.2491 41.375 41.164 41.3935 39.858C41.4133 38.5332 40.3233 37.4077 39.0261 37.4118C37.7447 37.4158 36.6679 38.5103 36.6626 39.8163C36.656 41.1155 37.7328 42.2249 39.0089 42.237Z" fill="white"/>
</svg>
