<svg width="1026" height="379" viewBox="0 0 1026 379" fill="none" xmlns="http://www.w3.org/2000/svg">
<path d="M8.50586 83.2116V1H334.046C362.394 1 365.137 36.625 365.137 36.625V114.269C365.137 114.269 358.736 83.2116 334.046 83.2116H8.50586Z" fill="#3E89C8" stroke="#3E89C8"/>
<path d="M95.1016 165.423V83.2114H334.684C363.032 83.2114 365.775 118.836 365.775 118.836V196.481C365.775 196.481 359.374 165.423 334.684 165.423H95.1016Z" fill="#166DB2" stroke="#166DB2"/>
<path d="M177.677 247.634V165.423H334.961C363.308 165.423 366.052 201.048 366.052 201.048V295.134C366.052 295.134 343.191 247.634 318.501 247.634H177.677Z" fill="#135785" stroke="#135785"/>
<path d="M264.738 319.608V247.445H316.861C345.209 247.445 366.241 295.858 366.241 295.858L365.324 372.279C365.324 372.279 351.61 319.608 316.861 319.608H264.738Z" fill="#09415F" stroke="#09415F"/>
<path d="M409.155 335.327C387.709 335.327 365.5 371.865 365.5 371.865V35.7115C365.5 17.4423 377.753 0.997205 398.432 1C419.111 1.0028 533.228 1 554.673 1C576.117 1 577.649 13.7858 577.649 27.4904V310.663C577.649 330.758 562.331 335.327 554.673 335.327H409.155Z" fill="#09415F" stroke="#09415F"/>
<path d="M14.631 105.134H0V117.923H14.631V105.134Z" fill="#166DB2"/>
<path d="M71.3264 103.308H29.2622V147.154H71.3264V103.308Z" fill="#166DB2"/>
<path d="M29.2619 132.538H14.6309V147.153H29.2619V132.538Z" fill="#166DB2"/>
<path d="M43.8932 191H29.2622V203.788H43.8932V191Z" fill="#135785"/>
<path d="M85.9572 191H71.3262V203.788H85.9572V191Z" fill="#135785"/>
<path d="M56.695 218.404H42.064V231.192H56.695V218.404Z" fill="#135785"/>
<path d="M157.284 189.173H117.048V227.538H157.284V189.173Z" fill="#135785"/>
<path d="M138.995 276.865H124.364V289.654H138.995V276.865Z" fill="#09415F"/>
<path d="M188.374 276.865H173.743V289.654H188.374V276.865Z" fill="#09415F"/>
<path d="M239.583 275.038H199.348V313.404H239.583V275.038Z" fill="#09415F"/>
<path d="M544.515 18.3555V245.504C544.515 267.137 537.991 284.6 524.946 297.893C511.901 311.186 494.289 317.832 472.11 317.832C450.063 317.832 432.451 311.186 419.274 297.893C406.228 284.6 399.705 267.137 399.705 245.504V18.3555H452.541V245.504C452.541 251.369 454.236 256.126 457.629 259.774C461.021 263.293 465.848 265.052 472.11 265.052C478.372 265.052 483.198 263.293 486.591 259.774C489.983 256.126 491.679 251.369 491.679 245.504V18.3555H544.515ZM599.645 311.577V18.3555H638.783L705.709 208.363L691.619 208.754V18.3555H740.541V311.577H701.403L634.477 121.569L648.567 121.178V311.577H599.645ZM850.464 311.577H797.628V18.3555H850.464V311.577ZM926.097 311.577V71.1353H883.046V18.3555H1021.99V71.1353H978.934V311.577H926.097Z" fill="#3E89C8"/>
<path d="M405.279 363.914C405.279 364.596 405.484 365.25 405.894 365.873C406.303 366.496 406.839 367.004 407.503 367.393C408.185 367.782 408.928 367.977 409.727 367.977C410.605 367.977 411.386 367.782 412.068 367.393C412.75 367.004 413.288 366.496 413.677 365.873C414.087 365.25 414.292 364.596 414.292 363.914V350.351H418.476V364.002C418.476 365.581 418.087 366.984 417.306 368.211C416.525 369.419 415.471 370.374 414.146 371.076C412.82 371.757 411.346 372.099 409.727 372.099C408.127 372.099 406.664 371.757 405.338 371.076C404.03 370.374 402.988 369.419 402.207 368.211C401.426 366.984 401.036 365.581 401.036 364.002V350.351H405.279V363.914ZM441.121 372.742L424.793 358.01L426.052 358.711L426.139 371.865H421.838V349.504H422.013L437.99 364.178L437.054 363.768L436.966 350.351H441.238V372.742H441.121ZM445.028 350.351H449.271V371.865H445.028V350.351ZM456.323 350.351L462.614 365.844L460.156 365.347L465.863 350.351H470.896L461.064 372.859L451.231 350.351H456.323ZM472.865 350.351H487.555V354.444H477.108V359.033H486.355V363.125H477.108V367.773H487.965V371.865H472.865V350.351ZM497.124 350.351C498.47 350.351 499.669 350.527 500.723 350.877C501.776 351.208 502.654 351.696 503.356 352.339C504.079 352.962 504.626 353.722 504.995 354.619C505.366 355.496 505.551 356.49 505.551 357.601C505.551 358.478 505.416 359.354 505.141 360.231C504.889 361.108 504.459 361.907 503.854 362.628C503.269 363.35 502.489 363.935 501.513 364.382C500.538 364.811 499.329 365.025 497.884 365.025H494.841V371.865H490.598V350.351H497.124ZM497.855 360.933C498.499 360.933 499.037 360.825 499.464 360.611C499.894 360.398 500.225 360.124 500.459 359.793C500.714 359.462 500.889 359.121 500.986 358.77C501.103 358.399 501.162 358.059 501.162 357.747C501.162 357.513 501.123 357.221 501.045 356.87C500.986 356.499 500.851 356.13 500.635 355.759C500.421 355.388 500.09 355.078 499.64 354.824C499.212 354.57 498.627 354.444 497.884 354.444H494.841V360.933H497.855ZM501.835 363.564L507.16 371.865H502.215L496.772 363.681L501.835 363.564ZM520.403 355.554C519.584 355.107 518.744 354.736 517.887 354.444C517.047 354.151 516.257 354.005 515.517 354.005C514.6 354.005 513.878 354.19 513.351 354.561C512.824 354.931 512.561 355.487 512.561 356.227C512.561 356.733 512.757 357.191 513.146 357.601C513.556 357.99 514.074 358.34 514.697 358.653C515.341 358.965 516.005 359.247 516.687 359.501C517.311 359.734 517.925 360.018 518.53 360.348C519.154 360.661 519.71 361.059 520.198 361.547C520.687 362.014 521.076 362.608 521.369 363.33C521.662 364.031 521.808 364.899 521.808 365.931C521.808 367.022 521.524 368.036 520.959 368.971C520.394 369.907 519.564 370.667 518.472 371.251C517.38 371.816 516.034 372.099 514.434 372.099C513.614 372.099 512.775 372.02 511.917 371.865C511.078 371.69 510.249 371.436 509.43 371.105C508.611 370.754 507.821 370.316 507.06 369.79L508.933 366.487C509.439 366.858 509.986 367.188 510.571 367.481C511.177 367.753 511.78 367.968 512.385 368.124C512.991 368.279 513.547 368.358 514.053 368.358C514.56 368.358 515.068 368.29 515.575 368.153C516.102 367.998 516.532 367.744 516.863 367.393C517.214 367.042 517.389 366.554 517.389 365.931C517.389 365.502 517.243 365.113 516.95 364.762C516.678 364.411 516.297 364.09 515.809 363.798C515.341 363.505 514.823 363.251 514.258 363.038C513.594 362.784 512.912 362.491 512.21 362.161C511.508 361.83 510.844 361.43 510.22 360.962C509.615 360.474 509.117 359.881 508.728 359.179C508.356 358.457 508.172 357.58 508.172 356.548C508.172 355.3 508.444 354.219 508.991 353.304C509.556 352.388 510.346 351.667 511.361 351.141C512.376 350.594 513.547 350.293 514.873 350.234C516.608 350.234 518.013 350.439 519.087 350.848C520.178 351.258 521.155 351.745 522.013 352.31L520.403 355.554ZM524.207 350.351H528.45V371.865H524.207V350.351ZM532.253 371.865V350.351H538.692C540.857 350.351 542.701 350.673 544.221 351.316C545.742 351.959 546.962 352.816 547.879 353.888C548.817 354.961 549.499 356.159 549.929 357.484C550.357 358.808 550.571 360.144 550.571 361.488C550.571 363.087 550.28 364.528 549.695 365.814C549.128 367.08 548.349 368.173 547.352 369.088C546.357 369.985 545.207 370.676 543.901 371.164C542.593 371.631 541.209 371.865 539.744 371.865H532.253ZM536.496 367.773H539.012C540.086 367.773 541.06 367.636 541.94 367.364C542.818 367.071 543.568 366.653 544.193 366.107C544.835 365.561 545.324 364.879 545.656 364.061C546.008 363.222 546.183 362.268 546.183 361.196C546.183 359.793 545.949 358.653 545.481 357.776C545.031 356.879 544.466 356.188 543.784 355.701C543.12 355.213 542.436 354.882 541.735 354.707C541.033 354.511 540.437 354.414 539.948 354.414H536.496V367.773ZM549.159 371.865L558.874 349.504H559.108L568.823 371.865H563.907L557.703 356.139L560.776 354.034L553.343 371.865H549.159ZM555.801 364.09H562.268L563.76 367.656H554.484L555.801 364.09ZM570.205 371.865V350.351H576.643C578.809 350.351 580.652 350.673 582.174 351.316C583.695 351.959 584.915 352.816 585.831 353.888C586.768 354.961 587.452 356.159 587.88 357.484C588.309 358.808 588.523 360.144 588.523 361.488C588.523 363.087 588.231 364.528 587.646 365.814C587.08 367.08 586.3 368.173 585.305 369.088C584.31 369.985 583.159 370.676 581.852 371.164C580.546 371.631 579.16 371.865 577.697 371.865H570.205ZM574.448 367.773H576.965C578.039 367.773 579.013 367.636 579.891 367.364C580.769 367.071 581.521 366.653 582.144 366.107C582.788 365.561 583.276 364.879 583.607 364.061C583.959 363.222 584.134 362.268 584.134 361.196C584.134 359.793 583.9 358.653 583.432 357.776C582.984 356.879 582.419 356.188 581.735 355.701C581.073 355.213 580.389 354.882 579.686 354.707C578.984 354.511 578.39 354.414 577.901 354.414H574.448V367.773ZM591.025 350.351H605.715V354.444H595.268V359.033H604.515V363.125H595.268V367.773H606.125V371.865H591.025V350.351ZM616.518 371.865V350.351H622.956C625.121 350.351 626.965 350.673 628.486 351.316C630.008 351.959 631.228 352.816 632.144 353.888C633.08 354.961 633.764 356.159 634.192 357.484C634.622 358.808 634.836 360.144 634.836 361.488C634.836 363.087 634.544 364.528 633.958 365.814C633.393 367.08 632.612 368.173 631.617 369.088C630.622 369.985 629.472 370.676 628.164 371.164C626.859 371.631 625.472 371.865 624.009 371.865H616.518ZM620.761 367.773H623.278C624.351 367.773 625.326 367.636 626.204 367.364C627.082 367.071 627.833 366.653 628.457 366.107C629.101 365.561 629.589 364.879 629.92 364.061C630.271 363.222 630.447 362.268 630.447 361.196C630.447 359.793 630.213 358.653 629.745 357.776C629.296 356.879 628.731 356.188 628.047 355.701C627.385 355.213 626.701 354.882 625.999 354.707C625.297 354.511 624.702 354.414 624.214 354.414H620.761V367.773ZM637.338 350.351H652.028V354.444H641.581V359.033H650.828V363.125H641.581V367.773H652.437V371.865H637.338V350.351ZM662.833 350.351H667.076V371.865H662.833V350.351ZM690.161 372.742L673.833 358.01L675.092 358.711L675.179 371.865H670.878V349.504H671.053L687.03 364.178L686.094 363.768L686.006 350.351H690.279V372.742H690.161ZM692.753 361.138C692.753 359.656 693.035 358.253 693.602 356.928C694.167 355.604 694.948 354.435 695.943 353.421C696.956 352.388 698.126 351.579 699.454 350.994C700.78 350.41 702.205 350.117 703.726 350.117C705.228 350.117 706.641 350.41 707.969 350.994C709.295 351.579 710.466 352.388 711.481 353.421C712.514 354.435 713.313 355.604 713.88 356.928C714.465 358.253 714.758 359.656 714.758 361.138C714.758 362.658 714.465 364.081 713.88 365.405C713.313 366.73 712.514 367.899 711.481 368.913C710.466 369.907 709.295 370.687 707.969 371.251C706.641 371.816 705.228 372.099 703.726 372.099C702.205 372.099 700.78 371.816 699.454 371.251C698.126 370.687 696.956 369.907 695.943 368.913C694.948 367.899 694.167 366.73 693.602 365.405C693.035 364.081 692.753 362.658 692.753 361.138ZM697.142 361.138C697.142 362.093 697.307 362.988 697.64 363.827C697.991 364.645 698.468 365.376 699.074 366.019C699.697 366.642 700.409 367.13 701.21 367.481C702.029 367.831 702.916 368.007 703.873 368.007C704.789 368.007 705.637 367.831 706.418 367.481C707.218 367.13 707.911 366.642 708.496 366.019C709.081 365.376 709.538 364.645 709.871 363.827C710.202 362.988 710.369 362.093 710.369 361.138C710.369 360.164 710.193 359.258 709.842 358.419C709.509 357.58 709.041 356.85 708.437 356.227C707.852 355.584 707.159 355.087 706.36 354.736C705.559 354.385 704.692 354.21 703.756 354.21C702.819 354.21 701.95 354.385 701.151 354.736C700.35 355.087 699.648 355.584 699.044 356.227C698.439 356.85 697.971 357.58 697.64 358.419C697.307 359.258 697.142 360.164 697.142 361.138ZM719.023 350.351L725.314 365.844L722.856 365.347L728.562 350.351H733.596L723.763 372.859L713.931 350.351H719.023ZM730.194 371.865L739.909 349.504H740.143L749.858 371.865H744.942L738.738 356.139L741.811 354.034L734.378 371.865H730.194ZM736.836 364.09H743.303L744.796 367.656H735.52L736.836 364.09ZM765.908 370.082C765.674 370.278 765.235 370.541 764.591 370.871C763.966 371.202 763.196 371.494 762.28 371.748C761.362 372.002 760.348 372.119 759.236 372.099C757.539 372.061 756.018 371.757 754.671 371.193C753.344 370.608 752.213 369.819 751.277 368.825C750.359 367.831 749.657 366.691 749.17 365.405C748.682 364.119 748.439 362.745 748.439 361.284C748.439 359.647 748.682 358.147 749.17 356.782C749.677 355.417 750.388 354.239 751.306 353.245C752.243 352.251 753.355 351.482 754.642 350.936C755.93 350.39 757.353 350.117 758.914 350.117C760.357 350.117 761.636 350.313 762.748 350.702C763.86 351.091 764.767 351.511 765.469 351.959L763.801 355.964C763.313 355.593 762.66 355.213 761.841 354.824C761.04 354.414 760.114 354.21 759.061 354.21C758.241 354.21 757.451 354.385 756.691 354.736C755.948 355.067 755.286 355.545 754.701 356.168C754.134 356.791 753.686 357.522 753.355 358.361C753.022 359.179 752.857 360.076 752.857 361.05C752.857 362.082 753.004 363.028 753.296 363.885C753.607 364.742 754.046 365.484 754.613 366.107C755.178 366.711 755.851 367.179 756.632 367.51C757.431 367.84 758.329 368.007 759.324 368.007C760.475 368.007 761.46 367.822 762.28 367.451C763.099 367.08 763.723 366.691 764.152 366.282L765.908 370.082ZM756.252 375.841C756.445 376.074 756.691 376.259 756.983 376.396C757.294 376.551 757.636 376.63 758.007 376.63C758.338 376.63 758.68 376.542 759.032 376.367C759.401 376.191 759.587 375.928 759.587 375.578C759.587 375.364 759.489 375.148 759.295 374.934C759.099 374.721 758.68 374.613 758.037 374.613C757.724 374.613 757.422 374.642 757.129 374.701C756.837 374.779 756.553 374.856 756.281 374.934L755.725 373.005L757.744 371.514H760.875L758.622 374.028L757.861 373.005C758.075 372.967 758.28 372.938 758.475 372.918C758.689 372.897 758.894 372.879 759.09 372.859C760.182 372.821 761.098 373.025 761.841 373.473C762.602 373.921 762.982 374.604 762.982 375.519C762.982 376.259 762.757 376.864 762.309 377.331C761.879 377.819 761.314 378.179 760.612 378.413C759.928 378.647 759.196 378.764 758.417 378.764C757.557 378.764 756.855 378.627 756.31 378.354C755.763 378.1 755.324 377.799 754.993 377.448L756.252 375.841ZM765.974 371.865L775.689 349.504H775.923L785.638 371.865H780.722L774.518 356.139L777.591 354.034L770.158 371.865H765.974ZM772.616 364.09H779.083L780.576 367.656H771.3L772.616 364.09ZM778.088 347.224C777.425 347.224 776.869 347.087 776.42 346.814C775.972 346.522 775.563 346.23 775.191 345.937C774.977 345.762 774.762 345.607 774.548 345.47C774.352 345.333 774.138 345.265 773.904 345.265C773.65 345.265 773.445 345.362 773.289 345.558C773.152 345.753 773.065 345.996 773.026 346.288C772.988 346.581 772.988 346.873 773.026 347.165H770.978C770.881 346.405 770.939 345.684 771.153 345.002C771.387 344.321 771.748 343.765 772.236 343.336C772.743 342.907 773.377 342.693 774.138 342.693C774.626 342.693 775.065 342.83 775.455 343.102C775.844 343.374 776.206 343.648 776.538 343.921C776.81 344.154 777.064 344.359 777.298 344.534C777.532 344.71 777.767 344.798 778.001 344.798C778.372 344.798 778.586 344.584 778.644 344.154C778.723 343.707 778.752 343.248 778.732 342.781H780.781C780.918 343.619 780.877 344.379 780.663 345.061C780.449 345.724 780.108 346.25 779.639 346.639C779.191 347.028 778.674 347.224 778.088 347.224ZM784.219 361.138C784.219 359.656 784.502 358.253 785.067 356.928C785.633 355.604 786.413 354.435 787.408 353.421C788.423 352.388 789.594 351.579 790.92 350.994C792.246 350.41 793.67 350.117 795.192 350.117C796.694 350.117 798.109 350.41 799.435 350.994C800.761 351.579 801.931 352.388 802.947 353.421C803.98 354.435 804.781 355.604 805.346 356.928C805.931 358.253 806.224 359.656 806.224 361.138C806.224 362.658 805.931 364.081 805.346 365.405C804.781 366.73 803.98 367.899 802.947 368.913C801.931 369.907 800.761 370.687 799.435 371.251C798.109 371.816 796.694 372.099 795.192 372.099C793.67 372.099 792.246 371.816 790.92 371.251C789.594 370.687 788.423 369.907 787.408 368.913C786.413 367.899 785.633 366.73 785.067 365.405C784.502 364.081 784.219 362.658 784.219 361.138ZM788.608 361.138C788.608 362.093 788.775 362.988 789.106 363.827C789.457 364.645 789.934 365.376 790.539 366.019C791.163 366.642 791.876 367.13 792.676 367.481C793.495 367.831 794.382 368.007 795.338 368.007C796.255 368.007 797.103 367.831 797.884 367.481C798.683 367.13 799.377 366.642 799.962 366.019C800.547 365.376 801.006 364.645 801.337 363.827C801.668 362.988 801.835 362.093 801.835 361.138C801.835 360.164 801.659 359.258 801.308 358.419C800.977 357.58 800.509 356.85 799.903 356.227C799.318 355.584 798.625 355.087 797.826 354.736C797.026 354.385 796.158 354.21 795.221 354.21C794.285 354.21 793.416 354.385 792.617 354.736C791.818 355.087 791.116 355.584 790.51 356.227C789.905 356.85 789.437 357.58 789.106 358.419C788.775 359.258 788.608 360.164 788.608 361.138ZM816.458 350.351H831.148V354.444H820.701V359.033H829.948V363.125H820.701V367.773H831.557V371.865H816.458V350.351ZM840.49 350.351H855.004V354.444H849.766V371.865H845.523V354.444H840.49V350.351ZM857.343 350.351H872.032V354.444H861.586V359.033H870.833V363.125H861.586V367.773H872.442V371.865H857.343V350.351ZM891.228 370.082C890.994 370.278 890.555 370.541 889.911 370.871C889.288 371.202 888.516 371.494 887.6 371.748C886.684 372.002 885.668 372.119 884.557 372.099C882.859 372.061 881.338 371.757 879.992 371.193C878.666 370.608 877.534 369.819 876.597 368.825C875.681 367.831 874.979 366.691 874.49 365.405C874.002 364.119 873.759 362.745 873.759 361.284C873.759 359.647 874.002 358.147 874.49 356.782C874.997 355.417 875.71 354.239 876.626 353.245C877.563 352.251 878.675 351.482 879.962 350.936C881.25 350.39 882.675 350.117 884.235 350.117C885.678 350.117 886.956 350.313 888.068 350.702C889.18 351.091 890.087 351.511 890.789 351.959L889.121 355.964C888.633 355.593 887.98 355.213 887.161 354.824C886.362 354.414 885.434 354.21 884.381 354.21C883.562 354.21 882.772 354.385 882.011 354.736C881.27 355.067 880.606 355.545 880.021 356.168C879.456 356.791 879.006 357.522 878.675 358.361C878.344 359.179 878.177 360.076 878.177 361.05C878.177 362.082 878.324 363.028 878.616 363.885C878.929 364.742 879.368 365.484 879.933 366.107C880.498 366.711 881.171 367.179 881.952 367.51C882.751 367.84 883.649 368.007 884.644 368.007C885.795 368.007 886.78 367.822 887.6 367.451C888.419 367.08 889.043 366.691 889.473 366.282L891.228 370.082ZM913.007 372.742L896.678 358.01L897.937 358.711L898.024 371.865H893.723V349.504H893.898L909.875 364.178L908.939 363.768L908.851 350.351H913.124V372.742H913.007ZM915.598 361.138C915.598 359.656 915.88 358.253 916.447 356.928C917.012 355.604 917.793 354.435 918.788 353.421C919.801 352.388 920.971 351.579 922.299 350.994C923.625 350.41 925.05 350.117 926.571 350.117C928.073 350.117 929.487 350.41 930.814 350.994C932.14 351.579 933.311 352.388 934.326 353.421C935.359 354.435 936.158 355.604 936.725 356.928C937.31 358.253 937.603 359.656 937.603 361.138C937.603 362.658 937.31 364.081 936.725 365.405C936.158 366.73 935.359 367.899 934.326 368.913C933.311 369.907 932.14 370.687 930.814 371.251C929.487 371.816 928.073 372.099 926.571 372.099C925.05 372.099 923.625 371.816 922.299 371.251C920.971 370.687 919.801 369.907 918.788 368.913C917.793 367.899 917.012 366.73 916.447 365.405C915.88 364.081 915.598 362.658 915.598 361.138ZM919.987 361.138C919.987 362.093 920.152 362.988 920.485 363.827C920.836 364.645 921.313 365.376 921.919 366.019C922.542 366.642 923.254 367.13 924.055 367.481C924.874 367.831 925.761 368.007 926.718 368.007C927.634 368.007 928.482 367.831 929.263 367.481C930.063 367.13 930.756 366.642 931.341 366.019C931.926 365.376 932.383 364.645 932.716 363.827C933.047 362.988 933.214 362.093 933.214 361.138C933.214 360.164 933.038 359.258 932.687 358.419C932.354 357.58 931.886 356.85 931.282 356.227C930.697 355.584 930.004 355.087 929.205 354.736C928.404 354.385 927.537 354.21 926.601 354.21C925.664 354.21 924.795 354.385 923.996 354.736C923.195 355.087 922.493 355.584 921.889 356.227C921.284 356.85 920.816 357.58 920.485 358.419C920.152 359.258 919.987 360.164 919.987 361.138ZM940.078 350.351H944.32V367.773H954.445V371.865H940.078V350.351ZM955.151 361.138C955.151 359.656 955.433 358.253 956 356.928C956.565 355.604 957.346 354.435 958.341 353.421C959.354 352.388 960.524 351.579 961.852 350.994C963.178 350.41 964.603 350.117 966.124 350.117C967.626 350.117 969.04 350.41 970.367 350.994C971.693 351.579 972.864 352.388 973.879 353.421C974.912 354.435 975.711 355.604 976.278 356.928C976.864 358.253 977.156 359.656 977.156 361.138C977.156 362.658 976.864 364.081 976.278 365.405C975.711 366.73 974.912 367.899 973.879 368.913C972.864 369.907 971.693 370.687 970.367 371.251C969.04 371.816 967.626 372.099 966.124 372.099C964.603 372.099 963.178 371.816 961.852 371.251C960.524 370.687 959.354 369.907 958.341 368.913C957.346 367.899 956.565 366.73 956 365.405C955.433 364.081 955.151 362.658 955.151 361.138ZM959.54 361.138C959.54 362.093 959.705 362.988 960.038 363.827C960.389 364.645 960.866 365.376 961.472 366.019C962.095 366.642 962.807 367.13 963.608 367.481C964.427 367.831 965.314 368.007 966.271 368.007C967.187 368.007 968.036 367.831 968.816 367.481C969.616 367.13 970.309 366.642 970.894 366.019C971.479 365.376 971.937 364.645 972.269 363.827C972.6 362.988 972.767 362.093 972.767 361.138C972.767 360.164 972.591 359.258 972.24 358.419C971.907 357.58 971.439 356.85 970.836 356.227C970.25 355.584 969.557 355.087 968.758 354.736C967.957 354.385 967.09 354.21 966.154 354.21C965.217 354.21 964.349 354.385 963.549 354.736C962.748 355.087 962.046 355.584 961.442 356.227C960.837 356.85 960.369 357.58 960.038 358.419C959.705 359.258 959.54 360.164 959.54 361.138ZM997.1 369.702C996.846 369.974 996.445 370.258 995.9 370.55C995.354 370.822 994.719 371.076 993.998 371.31C993.296 371.544 992.574 371.728 991.833 371.865C991.09 372.02 990.388 372.099 989.726 372.099C987.97 372.099 986.39 371.845 984.986 371.339C983.581 370.813 982.381 370.091 981.386 369.176C980.392 368.241 979.631 367.139 979.104 365.873C978.577 364.607 978.314 363.222 978.314 361.722C978.314 359.755 978.607 358.048 979.192 356.607C979.795 355.145 980.605 353.938 981.62 352.982C982.654 352.008 983.833 351.287 985.161 350.819C986.507 350.351 987.912 350.117 989.375 350.117C990.759 350.117 992.027 350.273 993.179 350.585C994.329 350.878 995.304 351.248 996.105 351.696L994.73 355.642C994.379 355.447 993.91 355.253 993.325 355.058C992.74 354.862 992.144 354.707 991.54 354.59C990.935 354.453 990.399 354.385 989.931 354.385C988.76 354.385 987.725 354.531 986.829 354.824C985.931 355.116 985.17 355.554 984.547 356.139C983.941 356.724 983.482 357.454 983.171 358.331C982.859 359.188 982.703 360.193 982.703 361.342C982.703 362.356 982.879 363.271 983.23 364.09C983.581 364.888 984.068 365.571 984.693 366.136C985.337 366.7 986.087 367.13 986.946 367.422C987.824 367.714 988.79 367.861 989.843 367.861C990.447 367.861 991.003 367.822 991.511 367.744C992.018 367.647 992.447 367.501 992.799 367.305V364.704H989.082V360.611H997.1V369.702ZM1000.16 350.351H1004.41V371.865H1000.16V350.351ZM1005.78 371.865L1015.5 349.504H1015.73L1025.45 371.865H1020.53L1014.33 356.139L1017.4 354.034L1009.97 371.865H1005.78ZM1012.42 364.09H1018.89L1020.38 367.656H1011.11L1012.42 364.09Z" fill="#195672"/>
</svg>
