<svg width="188" height="69" viewBox="0 0 188 69" fill="none" xmlns="http://www.w3.org/2000/svg">
<path d="M2.68093 19.2776H0V21.5997H2.68093V19.2776Z" fill="white" fill-opacity="0.5"/>
<path d="M13.0695 18.9459H5.36182V26.9075H13.0695V18.9459Z" fill="white" fill-opacity="0.5"/>
<path d="M5.36184 24.2535H2.68091V26.9074H5.36184V24.2535Z" fill="white" fill-opacity="0.5"/>
<path d="M8.04274 34.869H5.36182V37.1911H8.04274V34.869Z" fill="white" fill-opacity="0.75"/>
<path d="M15.7505 34.869H13.0696V37.1911H15.7505V34.869Z" fill="white" fill-opacity="0.75"/>
<path d="M10.3886 39.845H7.70764V42.1671H10.3886V39.845Z" fill="white" fill-opacity="0.75"/>
<path d="M28.8199 34.5372H21.4474V41.5036H28.8199V34.5372Z" fill="white" fill-opacity="0.75"/>
<path d="M25.4688 50.4603H22.7878V52.7824H25.4688V50.4603Z" fill="white"/>
<path d="M34.5169 50.4603H31.8359V52.7824H34.5169V50.4603Z" fill="white"/>
<path d="M43.9001 50.1285H36.5276V57.0949H43.9001V50.1285Z" fill="white"/>
<path d="M1.55863 15.2597V0.331787H61.2093C66.4037 0.331787 66.9061 6.80054 66.9061 6.80054V20.8991C66.9061 20.8991 65.7331 15.2597 61.2093 15.2597H1.55863Z" fill="white" fill-opacity="0.25"/>
<path d="M17.4261 30.1876V15.2597H61.3261C66.5205 15.2597 67.0232 21.7284 67.0232 21.7284V35.827C67.0232 35.827 65.8503 30.1876 61.3261 30.1876H17.4261Z" fill="white" fill-opacity="0.5"/>
<path d="M32.5569 45.1154V30.1875H61.3767C66.5712 30.1875 67.0739 36.6563 67.0739 36.6563V53.7406C67.0739 53.7406 62.885 45.1154 58.3607 45.1154H32.5569Z" fill="white" fill-opacity="0.75"/>
<path d="M48.5095 58.1844V45.0808H58.0603C63.2547 45.0808 67.1084 53.8718 67.1084 53.8718L66.9405 67.7481C66.9405 67.7481 64.4276 58.1844 58.0603 58.1844H48.5095Z" fill="white"/>
<path fill-rule="evenodd" clip-rule="evenodd" d="M66.9725 67.673C66.9725 67.673 71.0423 61.0383 74.9718 61.0383H101.636C103.039 61.0383 105.846 60.2087 105.846 56.56V5.14189C105.846 2.65342 105.565 0.331787 101.636 0.331787C100.667 0.331787 98.6666 0.331818 96.1448 0.331857C88.4375 0.331976 75.8621 0.33217 73.007 0.331787C69.2178 0.33128 66.9725 3.31737 66.9725 6.63468V67.673ZM99.7746 44.7288V3.48322H90.0933V44.7288C90.0933 45.7933 89.7827 46.6571 89.1608 47.3198C88.5392 47.9589 87.655 48.278 86.5076 48.278C85.3602 48.278 84.4756 47.9589 83.854 47.3198C83.2325 46.6571 82.9219 45.7933 82.9219 44.7288V3.48322H73.2402V44.7288C73.2402 48.6565 74.4358 51.8275 76.8258 54.2415C79.2406 56.6551 82.4678 57.8617 86.5076 57.8617C90.5713 57.8617 93.7985 56.6551 96.189 54.2415C98.5794 51.8275 99.7746 48.6565 99.7746 44.7288ZM109.876 3.48322V56.7261H118.841V29.4881L128.522 56.7261H135.694V3.48322H126.73V30.7211L117.048 3.48322H109.876ZM146.154 56.7261H155.836V3.48322H146.154V56.7261ZM169.694 13.0669V56.7261H179.376V13.0669H187.265V3.48322H161.806V13.0669H169.694Z" fill="white"/>
<path d="M74.2619 66.2296C74.2619 66.3532 74.2992 66.4721 74.3742 66.5853C74.4496 66.698 74.5477 66.7904 74.6693 66.861C74.7942 66.9317 74.9304 66.9674 75.0768 66.9674C75.2378 66.9674 75.3809 66.9317 75.5057 66.861C75.6306 66.7904 75.7291 66.698 75.8005 66.5853C75.8755 66.4721 75.9132 66.3532 75.9132 66.2296V63.7667H76.6799V66.2453C76.6799 66.5319 76.6085 66.7868 76.4654 67.0095C76.3223 67.2291 76.1293 67.4025 75.8865 67.5297C75.6436 67.6538 75.3732 67.7156 75.0768 67.7156C74.7837 67.7156 74.5153 67.6538 74.2724 67.5297C74.0328 67.4025 73.8418 67.2291 73.6987 67.0095C73.5556 66.7868 73.4843 66.5319 73.4843 66.2453V63.7667H74.2619V66.2296ZM80.8295 67.8324L77.8374 65.1575L78.0681 65.2847L78.0839 67.673H77.2957V63.6129H77.3282L80.2558 66.2774L80.0839 66.2027L80.0681 63.7667H80.8506V67.8324H80.8295ZM81.5451 63.7667H82.3227V67.673H81.5451V63.7667ZM83.6149 63.7667L84.7675 66.5796L84.3171 66.4897L85.3627 63.7667H86.285L84.4833 67.8537L82.6819 63.7667H83.6149ZM86.6459 63.7667H89.3376V64.5096H87.4235V65.3429H89.1178V66.0863H87.4235V66.9301H89.4126V67.673H86.6459V63.7667ZM91.0911 63.7667C91.3376 63.7667 91.5573 63.7984 91.7503 63.8622C91.9433 63.9224 92.1042 64.0107 92.2332 64.1275C92.3653 64.2407 92.4655 64.3788 92.5332 64.5418C92.6013 64.7007 92.635 64.8813 92.635 65.0828C92.635 65.2422 92.6102 65.4015 92.5599 65.5609C92.5137 65.7198 92.4351 65.8648 92.324 65.996C92.2169 66.1269 92.0742 66.2332 91.895 66.3143C91.7166 66.3922 91.4949 66.4311 91.2305 66.4311H90.6726V67.673H89.8954V63.7667H91.0911ZM91.2249 65.6881C91.3428 65.6881 91.4414 65.6685 91.52 65.6295C91.5987 65.591 91.6595 65.5412 91.7021 65.481C91.7487 65.4212 91.7811 65.359 91.7985 65.2952C91.82 65.2281 91.831 65.1663 91.831 65.1097C91.831 65.0672 91.8237 65.0142 91.8095 64.9504C91.7985 64.8829 91.7738 64.8159 91.7345 64.7485C91.6952 64.6814 91.6343 64.6248 91.552 64.5787C91.4738 64.5325 91.3663 64.5096 91.2305 64.5096H90.6726V65.6881H91.2249ZM91.9542 66.1658L92.9301 67.673H92.024L91.0266 66.1871L91.9542 66.1658ZM95.3566 64.7115C95.2066 64.6301 95.0526 64.563 94.8957 64.5096C94.7416 64.4567 94.5969 64.4302 94.461 64.4302C94.2932 64.4302 94.161 64.4635 94.0645 64.5309C93.968 64.5983 93.9198 64.6991 93.9198 64.8336C93.9198 64.9255 93.9555 65.0086 94.0268 65.0828C94.1018 65.1535 94.1967 65.2173 94.311 65.2739C94.429 65.3309 94.5506 65.3819 94.6755 65.428C94.7898 65.4706 94.9025 65.522 95.0136 65.5818C95.1276 65.6388 95.2297 65.711 95.3189 65.7997C95.4085 65.8844 95.4799 65.9924 95.5334 66.1232C95.5873 66.2509 95.6141 66.4082 95.6141 66.5957C95.6141 66.7936 95.5622 66.9778 95.4584 67.1476C95.355 67.3174 95.203 67.4555 95.0027 67.5619C94.8028 67.6642 94.5559 67.7156 94.2628 67.7156C94.1128 67.7156 93.9587 67.7015 93.8018 67.673C93.6477 67.6413 93.4961 67.5952 93.3461 67.535C93.1957 67.4715 93.0509 67.3917 92.9115 67.2961L93.2549 66.6964C93.3477 66.7639 93.4478 66.8241 93.5549 66.8771C93.666 66.9264 93.7767 66.9654 93.8873 66.9939C93.9984 67.022 94.1002 67.0364 94.193 67.0364C94.2859 67.0364 94.3791 67.024 94.472 66.9991C94.5685 66.971 94.6471 66.9248 94.7079 66.861C94.772 66.7972 94.8044 66.7089 94.8044 66.5957C94.8044 66.5178 94.7777 66.4472 94.7238 66.3834C94.6739 66.3195 94.6041 66.2613 94.515 66.2083C94.429 66.155 94.3341 66.1092 94.2307 66.0703C94.1091 66.0241 93.9838 65.9711 93.8553 65.9109C93.7268 65.8511 93.6052 65.7784 93.4908 65.6934C93.3797 65.6046 93.2885 65.4971 93.2172 65.3694C93.149 65.2386 93.1154 65.0792 93.1154 64.8918C93.1154 64.6654 93.1653 64.4691 93.2654 64.3029C93.3692 64.1367 93.5139 64.0055 93.6996 63.91C93.8857 63.8108 94.1002 63.7562 94.343 63.7454C94.6613 63.7454 94.9188 63.7827 95.1154 63.857C95.3153 63.9312 95.4945 64.0199 95.6514 64.1223L95.3566 64.7115ZM96.0536 63.7667H96.8312V67.673H96.0536V63.7667ZM97.5277 67.673V63.7667H98.708C99.1045 63.7667 99.4422 63.8253 99.7207 63.9417C99.9997 64.0585 100.223 64.2142 100.391 64.4089C100.563 64.6036 100.688 64.8211 100.767 65.062C100.845 65.3024 100.884 65.5448 100.884 65.7889C100.884 66.0791 100.831 66.3408 100.724 66.5744C100.62 66.8044 100.477 67.0027 100.294 67.1689C100.112 67.3319 99.9016 67.4571 99.6623 67.5458C99.4227 67.6305 99.1689 67.673 98.9005 67.673H97.5277ZM98.3054 66.9301H98.7663C98.963 66.9301 99.1418 66.9052 99.3031 66.8558C99.4637 66.8028 99.6011 66.7265 99.7159 66.6274C99.8334 66.5283 99.923 66.4046 99.9839 66.2561C100.048 66.1036 100.08 65.9306 100.08 65.7359C100.08 65.481 100.037 65.2739 99.9518 65.1149C99.8691 64.952 99.7657 64.8267 99.6409 64.738C99.5192 64.6493 99.394 64.5895 99.2654 64.5574C99.1369 64.5221 99.0274 64.5044 98.9378 64.5044H98.3054V66.9301ZM100.626 67.673L102.406 63.6129H102.448L104.229 67.673H103.328L102.191 64.8175L102.754 64.4354L101.392 67.673H100.626ZM101.843 66.2613H103.028L103.301 66.9088H101.602L101.843 66.2613ZM104.482 67.673V63.7667H105.662C106.058 63.7667 106.396 63.8253 106.675 63.9417C106.954 64.0585 107.177 64.2142 107.345 64.4089C107.517 64.6036 107.642 64.8211 107.721 65.062C107.799 65.3024 107.839 65.5448 107.839 65.7889C107.839 66.0791 107.785 66.3408 107.678 66.5744C107.574 66.8044 107.431 67.0027 107.249 67.1689C107.066 67.3319 106.856 67.4571 106.616 67.5458C106.377 67.6305 106.123 67.673 105.855 67.673H104.482ZM105.26 66.9301H105.721C105.917 66.9301 106.096 66.9052 106.257 66.8558C106.418 66.8028 106.556 66.7265 106.67 66.6274C106.788 66.5283 106.877 66.4046 106.938 66.2561C107.002 66.1036 107.034 65.9306 107.034 65.7359C107.034 65.481 106.991 65.2739 106.906 65.1149C106.824 64.952 106.72 64.8267 106.595 64.738C106.473 64.6493 106.348 64.5895 106.219 64.5574C106.091 64.5221 105.982 64.5044 105.892 64.5044H105.26V66.9301ZM108.297 63.7667H110.989V64.5096H109.075V65.3429H110.769V66.0863H109.075V66.9301H111.064V67.673H108.297V63.7667ZM112.968 67.673V63.7667H114.148C114.545 63.7667 114.882 63.8253 115.161 63.9417C115.44 64.0585 115.664 64.2142 115.831 64.4089C116.003 64.6036 116.128 64.8211 116.207 65.062C116.286 65.3024 116.325 65.5448 116.325 65.7889C116.325 66.0791 116.271 66.3408 116.164 66.5744C116.061 66.8044 115.917 67.0027 115.735 67.1689C115.553 67.3319 115.342 67.4571 115.103 67.5458C114.863 67.6305 114.609 67.673 114.341 67.673H112.968ZM113.746 66.9301H114.207C114.404 66.9301 114.582 66.9052 114.743 66.8558C114.904 66.8028 115.042 66.7265 115.156 66.6274C115.274 66.5283 115.363 66.4046 115.424 66.2561C115.488 66.1036 115.521 65.9306 115.521 65.7359C115.521 65.481 115.478 65.2739 115.392 65.1149C115.31 64.952 115.206 64.8267 115.081 64.738C114.959 64.6493 114.834 64.5895 114.706 64.5574C114.577 64.5221 114.468 64.5044 114.378 64.5044H113.746V66.9301ZM116.783 63.7667H119.475V64.5096H117.561V65.3429H119.255V66.0863H117.561V66.9301H119.55V67.673H116.783V63.7667ZM121.455 63.7667H122.232V67.673H121.455V63.7667ZM126.462 67.8324L123.471 65.1575L123.701 65.2847L123.717 67.673H122.929V63.6129H122.961L125.889 66.2774L125.717 66.2027L125.701 63.7667H126.484V67.8324H126.462ZM126.937 65.7251C126.937 65.4561 126.989 65.2012 127.093 64.9608C127.196 64.7204 127.339 64.508 127.522 64.3242C127.707 64.1367 127.922 63.9894 128.165 63.8835C128.408 63.7775 128.669 63.7241 128.948 63.7241C129.223 63.7241 129.482 63.7775 129.725 63.8835C129.969 63.9894 130.183 64.1367 130.369 64.3242C130.558 64.508 130.704 64.7204 130.809 64.9608C130.916 65.2012 130.969 65.4561 130.969 65.7251C130.969 66.0012 130.916 66.2597 130.809 66.5002C130.704 66.7406 130.558 66.9529 130.369 67.1372C130.183 67.3174 129.969 67.4591 129.725 67.5619C129.482 67.6642 129.223 67.7156 128.948 67.7156C128.669 67.7156 128.408 67.6642 128.165 67.5619C127.922 67.4591 127.707 67.3174 127.522 67.1372C127.339 66.9529 127.196 66.7406 127.093 66.5002C126.989 66.2597 126.937 66.0012 126.937 65.7251ZM127.742 65.7251C127.742 65.8989 127.772 66.0614 127.833 66.2136C127.897 66.3621 127.984 66.4949 128.095 66.6117C128.21 66.7245 128.34 66.8132 128.487 66.8771C128.637 66.9409 128.799 66.9726 128.975 66.9726C129.143 66.9726 129.298 66.9409 129.441 66.8771C129.588 66.8132 129.715 66.7245 129.822 66.6117C129.929 66.4949 130.013 66.3621 130.074 66.2136C130.134 66.0614 130.165 65.8989 130.165 65.7251C130.165 65.5485 130.133 65.3839 130.069 65.2317C130.007 65.0792 129.922 64.9468 129.811 64.8336C129.704 64.7168 129.577 64.6264 129.431 64.563C129.284 64.4992 129.125 64.4675 128.953 64.4675C128.782 64.4675 128.623 64.4992 128.476 64.563C128.329 64.6264 128.2 64.7168 128.09 64.8336C127.979 64.9468 127.893 65.0792 127.833 65.2317C127.772 65.3839 127.742 65.5485 127.742 65.7251ZM131.751 63.7667L132.904 66.5796L132.453 66.4897L133.499 63.7667H134.421L132.619 67.8537L130.818 63.7667H131.751ZM133.798 67.673L135.578 63.6129H135.621L137.401 67.673H136.5L135.363 64.8175L135.926 64.4354L134.565 67.673H133.798ZM135.015 66.2613H136.2L136.473 66.9088H134.774L135.015 66.2613ZM140.342 67.3495C140.299 67.3848 140.219 67.4326 140.101 67.4928C139.986 67.5526 139.845 67.606 139.677 67.6518C139.509 67.6979 139.323 67.7192 139.119 67.7156C138.808 67.7088 138.53 67.6538 138.283 67.551C138.04 67.445 137.832 67.3017 137.661 67.1211C137.493 66.9405 137.364 66.7338 137.275 66.5002C137.185 66.2665 137.141 66.0173 137.141 65.752C137.141 65.4545 137.185 65.1824 137.275 64.9343C137.368 64.6867 137.498 64.4727 137.666 64.2921C137.838 64.1119 138.042 63.9722 138.278 63.873C138.514 63.7735 138.774 63.7241 139.06 63.7241C139.325 63.7241 139.559 63.7598 139.763 63.8305C139.967 63.9011 140.133 63.9774 140.261 64.0585L139.956 64.7858C139.866 64.7184 139.747 64.6493 139.596 64.5787C139.45 64.5044 139.28 64.4675 139.087 64.4675C138.937 64.4675 138.792 64.4992 138.653 64.563C138.517 64.6228 138.396 64.7099 138.289 64.8227C138.184 64.9359 138.102 65.0688 138.042 65.2209C137.981 65.3694 137.95 65.5324 137.95 65.7094C137.95 65.8969 137.977 66.0687 138.031 66.224C138.088 66.3797 138.168 66.5146 138.272 66.6274C138.376 66.7374 138.499 66.8221 138.642 66.8823C138.789 66.9425 138.953 66.9726 139.135 66.9726C139.346 66.9726 139.527 66.9389 139.677 66.8719C139.827 66.8044 139.941 66.7338 140.02 66.6595L140.342 67.3495ZM138.572 68.3951C138.608 68.4373 138.653 68.471 138.707 68.4959C138.764 68.524 138.826 68.5384 138.894 68.5384C138.955 68.5384 139.017 68.5224 139.082 68.4907C139.15 68.4586 139.184 68.4108 139.184 68.3474C139.184 68.3084 139.165 68.2691 139.13 68.2306C139.094 68.1916 139.017 68.172 138.899 68.172C138.842 68.172 138.787 68.1772 138.733 68.188C138.68 68.2021 138.628 68.2161 138.578 68.2306L138.476 67.8802L138.846 67.6096H139.42L139.007 68.066L138.867 67.8802C138.907 67.8733 138.944 67.8677 138.98 67.8641C139.019 67.8605 139.057 67.8573 139.092 67.8537C139.293 67.8468 139.461 67.8838 139.596 67.9653C139.736 68.0463 139.806 68.1704 139.806 68.3365C139.806 68.471 139.765 68.5806 139.682 68.6657C139.604 68.7544 139.5 68.8194 139.371 68.862C139.246 68.9045 139.112 68.9258 138.969 68.9258C138.812 68.9258 138.683 68.9009 138.583 68.8515C138.483 68.8054 138.402 68.7508 138.342 68.687L138.572 68.3951ZM140.354 67.673L142.134 63.6129H142.177L143.957 67.673H143.056L141.92 64.8175L142.483 64.4354L141.121 67.673H140.354ZM141.571 66.2613H142.756L143.03 66.9088H141.33L141.571 66.2613ZM142.574 63.1987C142.452 63.1987 142.35 63.1738 142.268 63.1244C142.186 63.0714 142.111 63.0185 142.043 62.9651C142.004 62.9334 141.964 62.9053 141.925 62.8804C141.889 62.8555 141.85 62.843 141.807 62.843C141.76 62.843 141.723 62.8607 141.695 62.8964C141.669 62.9318 141.653 62.9759 141.646 63.0289C141.639 63.0819 141.639 63.1353 141.646 63.1882H141.271C141.253 63.0502 141.264 62.9193 141.303 62.7953C141.346 62.6717 141.412 62.5709 141.502 62.493C141.594 62.4148 141.71 62.3762 141.85 62.3762C141.939 62.3762 142.02 62.4011 142.091 62.4505C142.162 62.4998 142.229 62.5496 142.29 62.599C142.34 62.6415 142.386 62.6785 142.429 62.7106C142.472 62.7423 142.515 62.7583 142.558 62.7583C142.626 62.7583 142.665 62.7194 142.676 62.6415C142.69 62.5601 142.696 62.477 142.692 62.3919H143.067C143.092 62.5444 143.085 62.6821 143.045 62.8061C143.007 62.9265 142.944 63.0221 142.858 63.0927C142.776 63.1634 142.681 63.1987 142.574 63.1987ZM143.697 65.7251C143.697 65.4561 143.749 65.2012 143.853 64.9608C143.956 64.7204 144.099 64.508 144.282 64.3242C144.467 64.1367 144.682 63.9894 144.925 63.8835C145.168 63.7775 145.429 63.7241 145.708 63.7241C145.983 63.7241 146.242 63.7775 146.485 63.8835C146.728 63.9894 146.942 64.1367 147.129 64.3242C147.318 64.508 147.465 64.7204 147.568 64.9608C147.676 65.2012 147.729 65.4561 147.729 65.7251C147.729 66.0012 147.676 66.2597 147.568 66.5002C147.465 66.7406 147.318 66.9529 147.129 67.1372C146.942 67.3174 146.728 67.4591 146.485 67.5619C146.242 67.6642 145.983 67.7156 145.708 67.7156C145.429 67.7156 145.168 67.6642 144.925 67.5619C144.682 67.4591 144.467 67.3174 144.282 67.1372C144.099 66.9529 143.956 66.7406 143.853 66.5002C143.749 66.2597 143.697 66.0012 143.697 65.7251ZM144.501 65.7251C144.501 65.8989 144.532 66.0614 144.593 66.2136C144.657 66.3621 144.744 66.4949 144.855 66.6117C144.97 66.7245 145.1 66.8132 145.247 66.8771C145.397 66.9409 145.559 66.9726 145.735 66.9726C145.903 66.9726 146.058 66.9409 146.201 66.8771C146.347 66.8132 146.475 66.7245 146.582 66.6117C146.689 66.4949 146.773 66.3621 146.834 66.2136C146.894 66.0614 146.925 65.8989 146.925 65.7251C146.925 65.5485 146.893 65.3839 146.829 65.2317C146.768 65.0792 146.682 64.9468 146.571 64.8336C146.464 64.7168 146.337 64.6264 146.19 64.563C146.044 64.4992 145.885 64.4675 145.713 64.4675C145.542 64.4675 145.382 64.4992 145.236 64.563C145.09 64.6264 144.961 64.7168 144.85 64.8336C144.739 64.9468 144.653 65.0792 144.593 65.2317C144.532 65.3839 144.501 65.5485 144.501 65.7251ZM149.605 63.7667H152.296V64.5096H150.382V65.3429H152.076V66.0863H150.382V66.9301H152.371V67.673H149.605V63.7667ZM154.008 63.7667H156.667V64.5096H155.708V67.673H154.93V64.5096H154.008V63.7667ZM157.096 63.7667H159.787V64.5096H157.873V65.3429H159.568V66.0863H157.873V66.9301H159.863V67.673H157.096V63.7667ZM163.305 67.3495C163.262 67.3848 163.182 67.4326 163.064 67.4928C162.949 67.5526 162.808 67.606 162.64 67.6518C162.472 67.6979 162.286 67.7192 162.083 67.7156C161.772 67.7088 161.493 67.6538 161.246 67.551C161.003 67.445 160.796 67.3017 160.624 67.1211C160.456 66.9405 160.328 66.7338 160.238 66.5002C160.149 66.2665 160.104 66.0173 160.104 65.752C160.104 65.4545 160.149 65.1824 160.238 64.9343C160.331 64.6867 160.462 64.4727 160.63 64.2921C160.801 64.1119 161.005 63.9722 161.241 63.873C161.477 63.7735 161.738 63.7241 162.023 63.7241C162.288 63.7241 162.522 63.7598 162.726 63.8305C162.93 63.9011 163.096 63.9774 163.225 64.0585L162.919 64.7858C162.829 64.7184 162.71 64.6493 162.56 64.5787C162.413 64.5044 162.243 64.4675 162.05 64.4675C161.9 64.4675 161.755 64.4992 161.616 64.563C161.48 64.6228 161.359 64.7099 161.252 64.8227C161.148 64.9359 161.065 65.0688 161.005 65.2209C160.944 65.3694 160.914 65.5324 160.914 65.7094C160.914 65.8969 160.941 66.0687 160.994 66.224C161.051 66.3797 161.132 66.5146 161.235 66.6274C161.339 66.7374 161.462 66.8221 161.605 66.8823C161.752 66.9425 161.916 66.9726 162.098 66.9726C162.309 66.9726 162.49 66.9389 162.64 66.8719C162.79 66.8044 162.904 66.7338 162.984 66.6595L163.305 67.3495ZM167.296 67.8324L164.304 65.1575L164.534 65.2847L164.551 67.673H163.762V63.6129H163.794L166.722 66.2774L166.55 66.2027L166.534 63.7667H167.317V67.8324H167.296ZM167.77 65.7251C167.77 65.4561 167.822 65.2012 167.926 64.9608C168.03 64.7204 168.173 64.508 168.355 64.3242C168.54 64.1367 168.755 63.9894 168.998 63.8835C169.241 63.7775 169.502 63.7241 169.781 63.7241C170.056 63.7241 170.315 63.7775 170.559 63.8835C170.802 63.9894 171.016 64.1367 171.202 64.3242C171.391 64.508 171.538 64.7204 171.642 64.9608C171.749 65.2012 171.803 65.4561 171.803 65.7251C171.803 66.0012 171.749 66.2597 171.642 66.5002C171.538 66.7406 171.391 66.9529 171.202 67.1372C171.016 67.3174 170.802 67.4591 170.559 67.5619C170.315 67.6642 170.056 67.7156 169.781 67.7156C169.502 67.7156 169.241 67.6642 168.998 67.5619C168.755 67.4591 168.54 67.3174 168.355 67.1372C168.173 66.9529 168.03 66.7406 167.926 66.5002C167.822 66.2597 167.77 66.0012 167.77 65.7251ZM168.575 65.7251C168.575 65.8989 168.605 66.0614 168.666 66.2136C168.73 66.3621 168.818 66.4949 168.929 66.6117C169.043 66.7245 169.173 66.8132 169.32 66.8771C169.47 66.9409 169.633 66.9726 169.808 66.9726C169.976 66.9726 170.131 66.9409 170.274 66.8771C170.421 66.8132 170.548 66.7245 170.655 66.6117C170.762 66.4949 170.846 66.3621 170.907 66.2136C170.968 66.0614 170.998 65.8989 170.998 65.7251C170.998 65.5485 170.966 65.3839 170.902 65.2317C170.841 65.0792 170.755 64.9468 170.645 64.8336C170.537 64.7168 170.41 64.6264 170.264 64.563C170.117 64.4992 169.958 64.4675 169.787 64.4675C169.615 64.4675 169.456 64.4992 169.31 64.563C169.162 64.6264 169.034 64.7168 168.923 64.8336C168.812 64.9468 168.726 65.0792 168.666 65.2317C168.605 65.3839 168.575 65.5485 168.575 65.7251ZM172.256 63.7667H173.033V66.9301H174.889V67.673H172.256V63.7667ZM175.018 65.7251C175.018 65.4561 175.07 65.2012 175.173 64.9608C175.277 64.7204 175.42 64.508 175.602 64.3242C175.788 64.1367 176.002 63.9894 176.246 63.8835C176.489 63.7775 176.75 63.7241 177.029 63.7241C177.304 63.7241 177.563 63.7775 177.806 63.8835C178.049 63.9894 178.264 64.1367 178.45 64.3242C178.639 64.508 178.785 64.7204 178.889 64.9608C178.997 65.2012 179.05 65.4561 179.05 65.7251C179.05 66.0012 178.997 66.2597 178.889 66.5002C178.785 66.7406 178.639 66.9529 178.45 67.1372C178.264 67.3174 178.049 67.4591 177.806 67.5619C177.563 67.6642 177.304 67.7156 177.029 67.7156C176.75 67.7156 176.489 67.6642 176.246 67.5619C176.002 67.4591 175.788 67.3174 175.602 67.1372C175.42 66.9529 175.277 66.7406 175.173 66.5002C175.07 66.2597 175.018 66.0012 175.018 65.7251ZM175.822 65.7251C175.822 65.8989 175.852 66.0614 175.913 66.2136C175.978 66.3621 176.065 66.4949 176.176 66.6117C176.29 66.7245 176.421 66.8132 176.568 66.8771C176.718 66.9409 176.88 66.9726 177.055 66.9726C177.224 66.9726 177.379 66.9409 177.522 66.8771C177.668 66.8132 177.795 66.7245 177.903 66.6117C178.01 66.4949 178.094 66.3621 178.155 66.2136C178.215 66.0614 178.246 65.8989 178.246 65.7251C178.246 65.5485 178.214 65.3839 178.149 65.2317C178.088 65.0792 178.002 64.9468 177.892 64.8336C177.785 64.7168 177.658 64.6264 177.511 64.563C177.365 64.4992 177.206 64.4675 177.034 64.4675C176.862 64.4675 176.703 64.4992 176.557 64.563C176.41 64.6264 176.281 64.7168 176.171 64.8336C176.06 64.9468 175.974 65.0792 175.913 65.2317C175.852 65.3839 175.822 65.5485 175.822 65.7251ZM182.705 67.2805C182.658 67.3298 182.585 67.3812 182.485 67.4342C182.384 67.4836 182.268 67.5297 182.136 67.5723C182.008 67.6148 181.875 67.6481 181.739 67.673C181.604 67.7015 181.475 67.7156 181.353 67.7156C181.032 67.7156 180.742 67.6694 180.485 67.5775C180.227 67.482 180.008 67.3511 179.825 67.1849C179.643 67.0152 179.503 66.8149 179.407 66.5853C179.31 66.3553 179.262 66.1036 179.262 65.8314C179.262 65.4742 179.316 65.1643 179.423 64.9026C179.534 64.6373 179.682 64.4177 179.868 64.2443C180.058 64.0677 180.274 63.9364 180.517 63.8518C180.763 63.7667 181.021 63.7241 181.289 63.7241C181.543 63.7241 181.775 63.7526 181.986 63.8092C182.197 63.8622 182.375 63.9296 182.522 64.0107L182.27 64.7272C182.206 64.6919 182.12 64.6566 182.013 64.6212C181.906 64.5859 181.796 64.5574 181.686 64.5361C181.575 64.5112 181.477 64.4992 181.391 64.4992C181.177 64.4992 180.987 64.5257 180.823 64.5787C180.658 64.6317 180.519 64.7115 180.404 64.8175C180.294 64.9239 180.209 65.0563 180.152 65.2157C180.095 65.3714 180.066 65.5537 180.066 65.7624C180.066 65.9466 180.099 66.1128 180.163 66.2613C180.227 66.4062 180.317 66.5303 180.431 66.633C180.549 66.7354 180.686 66.8132 180.844 66.8662C181.005 66.9196 181.182 66.9461 181.375 66.9461C181.486 66.9461 181.587 66.9389 181.681 66.9248C181.773 66.9072 181.852 66.8807 181.917 66.845V66.3729H181.235V65.6295H182.705V67.2805ZM183.266 63.7667H184.043V67.673H183.266V63.7667ZM184.295 67.673L186.075 63.6129H186.118L187.899 67.673H186.998L185.861 64.8175L186.424 64.4354L185.062 67.673H184.295ZM185.513 66.2613H186.697L186.971 66.9088H185.271L185.513 66.2613Z" fill="white"/>
</svg>
