<svg width="22" height="22" viewBox="0 0 22 22" fill="none" xmlns="http://www.w3.org/2000/svg">
<path d="M22 20.8699L14.8637 13.7335C15.0357 13.5254 15.1981 13.3086 15.3499 13.0842C15.8023 12.4148 16.1607 11.676 16.4062 10.887C16.6517 10.098 16.7837 9.25914 16.7837 8.39182C16.7837 7.23551 16.5488 6.12939 16.1239 5.12525C15.4864 3.61823 14.4232 2.33852 13.0843 1.4338C12.4149 0.981444 11.6761 0.623073 10.8872 0.377552C10.0979 0.132031 9.259 0 8.3917 0C7.2354 0 6.1293 0.234971 5.12517 0.659837C3.61818 1.2973 2.33849 2.36058 1.43378 3.69943C0.981429 4.36886 0.623064 5.10766 0.377547 5.89665C0.132029 6.68564 0 7.52451 0 8.39182C0 9.54813 0.234968 10.6543 0.659827 11.6584C1.29728 13.1654 2.36055 14.4451 3.69938 15.3498C4.3688 15.8022 5.10759 16.1606 5.89657 16.4061C6.68555 16.6516 7.5244 16.7836 8.3917 16.7836C9.548 16.7836 10.6541 16.5487 11.6582 16.1238C12.4133 15.8044 13.1112 15.3783 13.7333 14.8639L20.8693 22L22 20.8699ZM12.1892 14.0254C11.647 14.3917 11.0496 14.6814 10.4121 14.8799C9.77465 15.0781 9.09692 15.1852 8.3917 15.1852C7.45151 15.1852 6.55991 14.995 5.74759 14.6516C4.5296 14.1366 3.49063 13.2741 2.75791 12.1894C2.39155 11.6472 2.10192 11.0497 1.9034 10.4123C1.70519 9.77479 1.5981 9.09705 1.5981 8.39182C1.5981 7.45162 1.78831 6.56001 2.13165 5.74768C2.64666 4.52967 3.50917 3.49068 4.59386 2.75795C5.13604 2.39159 5.73353 2.10195 6.37098 1.90343C7.00843 1.70522 7.68616 1.59812 8.39138 1.59812C9.33157 1.59812 10.2232 1.78834 11.0355 2.13168C12.2535 2.6467 13.2925 3.50922 14.0252 4.59392C14.3915 5.13611 14.6812 5.73361 14.8797 6.37107C15.0779 7.00853 15.185 7.68627 15.185 8.3915C15.185 9.33171 14.9948 10.2233 14.6514 11.0356C14.1364 12.254 13.2739 13.293 12.1892 14.0254Z" fill="#444444"/>
</svg>
