<svg width="43" height="36" viewBox="0 0 43 36" fill="none" xmlns="http://www.w3.org/2000/svg">
<path d="M42.192 19.8744C41.9555 20.2905 41.7748 20.7534 41.4714 21.1126C41.0063 21.6647 40.3415 21.832 39.6276 21.8242C38.8234 21.8153 38.0192 21.822 37.1581 21.822C37.1581 22.0127 37.1581 22.1599 37.1581 22.3083C37.1581 23.3378 37.1559 24.3673 37.1592 25.3968C37.1604 25.7939 37.0856 26.152 36.6986 26.3528C36.3004 26.5591 35.9524 26.4197 35.6133 26.181C33.7639 24.8715 31.8878 23.5977 30.073 22.2436C29.435 21.7673 28.7981 21.8275 28.0764 21.8376C28.0764 22.0238 28.0764 22.1744 28.0764 22.3239C28.0764 24.4666 28.0776 26.6093 28.0764 28.752C28.0753 30.3537 27.0837 31.3498 25.4742 31.352C22.4972 31.3565 19.519 31.3487 16.542 31.3621C16.2799 31.3632 15.9899 31.4413 15.7601 31.5673C13.3129 32.9091 10.8757 34.2688 8.43628 35.6229C8.33924 35.6765 8.24332 35.7334 8.14405 35.7836C7.43799 36.1371 6.82563 35.7668 6.84348 34.9872C6.8669 34 6.90483 33.0129 6.93494 32.0257C6.94052 31.8328 6.93606 31.6398 6.93606 31.3844C6.78771 31.3844 6.64159 31.3844 6.49435 31.3844C5.20048 31.3844 3.9066 31.3866 2.61272 31.3833C1.00876 31.3788 0.00489147 30.3883 0.00377606 28.7843C-0.001801 23.8587 -0.000685584 18.9342 0.00377606 14.0085C0.00489147 12.3677 0.985338 11.4029 2.63615 11.4018C6.32258 11.3996 10.0101 11.4007 13.6966 11.4007C13.875 11.4007 14.0524 11.4007 14.2844 11.4007C14.2844 11.1932 14.2844 11.0315 14.2844 10.8697C14.2844 8.18493 14.3368 5.49791 14.2665 2.81423C14.2186 0.941455 15.5214 -0.0077601 17.0696 4.77778e-05C24.4436 0.0346255 31.8175 0.0156635 39.1915 0.0156635C40.955 0.0156635 41.535 0.400481 42.192 2.00667C42.192 7.96297 42.192 13.9193 42.192 19.8744ZM35.4482 24.0182C35.4482 23.0255 35.446 22.1265 35.4493 21.2263C35.4527 20.469 35.7561 20.16 36.509 20.1566C37.4827 20.1522 38.4565 20.1566 39.4302 20.1555C40.3014 20.1544 40.5155 19.9414 40.5155 19.0747C40.5155 13.6348 40.5155 8.19497 40.5155 2.75511C40.5155 1.89179 40.2924 1.66982 39.4302 1.6687C31.9737 1.6687 24.5161 1.6687 17.0595 1.6687C16.1438 1.6687 15.9542 1.85498 15.9542 2.75511C15.9542 7.90274 15.9542 13.0504 15.9542 18.198C15.9542 18.5873 15.9475 18.9777 15.9564 19.3669C15.9687 19.88 16.2107 20.1221 16.7271 20.1511C16.8654 20.1589 17.0049 20.1555 17.1443 20.1555C21.1787 20.1555 25.2132 20.1622 29.2476 20.1477C29.7462 20.1455 30.1556 20.2726 30.5605 20.5638C32.1499 21.7082 33.7572 22.8269 35.4482 24.0182ZM14.2855 13.1017C14.1293 13.0883 14.0211 13.0704 13.913 13.0704C10.144 13.0693 6.37389 13.0671 2.60491 13.0704C1.89328 13.0716 1.67466 13.3036 1.67466 14.0375C1.67355 18.9342 1.67355 23.8297 1.67466 28.7263C1.67466 29.4859 1.90778 29.7146 2.67519 29.7157C4.34384 29.7168 6.01361 29.7124 7.68227 29.7191C8.31247 29.7224 8.62925 30.0503 8.62144 30.6794C8.61475 31.2081 8.57906 31.7357 8.5679 32.2633C8.55898 32.7117 8.56567 33.1601 8.56567 33.6464C8.72852 33.5594 8.8501 33.4981 8.96945 33.4312C11.0452 32.2789 13.1166 31.1167 15.2013 29.9823C15.4901 29.825 15.8515 29.728 16.1806 29.7258C19.2547 29.7068 22.3287 29.7146 25.4028 29.7135C26.1646 29.7135 26.4134 29.4692 26.4134 28.7252C26.4145 26.5691 26.4145 24.4131 26.4123 22.257C26.4123 22.1231 26.3978 21.9893 26.3888 21.8208C26.207 21.8208 26.0564 21.8208 25.9059 21.8208C23.945 21.8208 21.983 21.8208 20.0221 21.8208C18.9513 21.8208 17.8794 21.8309 16.8086 21.8186C15.2593 21.8008 14.2989 20.8304 14.2855 19.2788C14.2777 18.3051 14.2844 17.3313 14.2833 16.3576C14.2855 15.2901 14.2855 14.2193 14.2855 13.1017Z" fill="white"/>
<path d="M23.5862 11.0728C23.5761 12.0343 22.8121 12.785 21.8573 12.7727C20.9237 12.7604 20.1373 11.9495 20.163 11.0226C20.1886 10.0801 20.9683 9.34504 21.9309 9.35508C22.8634 9.36512 23.5973 10.1258 23.5862 11.0728Z" fill="white"/>
<path d="M26.9856 11.0515C26.9878 10.0867 27.7329 9.35275 28.7056 9.35499C29.6336 9.35833 30.4043 10.1235 30.4077 11.0437C30.4099 11.9818 29.628 12.7693 28.6899 12.7726C27.7396 12.776 26.9834 12.0119 26.9856 11.0515Z" fill="white"/>
<path d="M35.5064 9.35498C36.4512 9.3561 37.1929 10.0945 37.1952 11.0381C37.1974 12.0074 36.4534 12.7681 35.5009 12.7726C34.5639 12.7759 33.7709 11.9896 33.772 11.0571C33.772 10.1213 34.5539 9.35387 35.5064 9.35498Z" fill="white"/>
</svg>
