<svg width="245" height="91" viewBox="0 0 245 91" fill="none" xmlns="http://www.w3.org/2000/svg">
<g clip-path="url(#clip0_144_109)">
<path d="M2.03125 20.125V0.4375H79.7674C86.5366 0.4375 87.1917 8.96875 87.1917 8.96875V27.5625C87.1917 27.5625 85.6631 20.125 79.7674 20.125H2.03125Z" fill="#3E89C8" stroke="#3E89C8"/>
<path d="M22.7095 39.8125V20.125H79.9198C86.689 20.125 87.3441 28.6562 87.3441 28.6562V47.25C87.3441 47.25 85.8155 39.8125 79.9198 39.8125H22.7095Z" fill="#166DB2" stroke="#166DB2"/>
<path d="M42.4277 59.5V39.8125H79.9857C86.7548 39.8125 87.4099 48.3438 87.4099 48.3438V70.875C87.4099 70.875 81.9509 59.5 76.0552 59.5H42.4277Z" fill="#135785" stroke="#135785"/>
<path d="M63.2173 76.7358V59.4546H75.6638C82.433 59.4546 87.4553 71.0483 87.4553 71.0483L87.2364 89.349C87.2364 89.349 83.9615 76.7358 75.6638 76.7358H63.2173Z" fill="#09415F" stroke="#09415F"/>
<path d="M97.7026 80.5C92.5816 80.5 87.2781 89.25 87.2781 89.25V8.75C87.2781 4.375 90.2041 0.436831 95.1421 0.4375C100.08 0.438169 127.33 0.4375 132.451 0.4375C137.572 0.4375 137.938 3.49936 137.938 6.78125V74.5938C137.938 79.4058 134.28 80.5 132.451 80.5H97.7026Z" fill="#09415F" stroke="#09415F"/>
<path d="M3.49376 25.375H0V28.4375H3.49376V25.375Z" fill="#166DB2"/>
<path d="M17.0321 24.9375H6.98755V35.4375H17.0321V24.9375Z" fill="#166DB2"/>
<path d="M6.98741 31.9375H3.49365V35.4375H6.98741V31.9375Z" fill="#166DB2"/>
<path d="M10.4813 45.9375H6.98755V49H10.4813V45.9375Z" fill="#135785"/>
<path d="M20.5257 45.9375H17.032V49H20.5257V45.9375Z" fill="#135785"/>
<path d="M13.5384 52.5H10.0447V55.5625H13.5384V52.5Z" fill="#135785"/>
<path d="M37.558 45.5H27.9502V54.6875H37.558V45.5Z" fill="#135785"/>
<path d="M33.1908 66.5H29.697V69.5625H33.1908V66.5Z" fill="#09415F"/>
<path d="M44.9823 66.5H41.4885V69.5625H44.9823V66.5Z" fill="#09415F"/>
<path d="M57.2104 66.0625H47.6025V75.25H57.2104V66.0625Z" fill="#09415F"/>
<path d="M130.026 4.59375V58.9899C130.026 64.1703 128.468 68.3524 125.353 71.5356C122.238 74.7189 118.032 76.3105 112.736 76.3105C107.471 76.3105 103.266 74.7189 100.119 71.5356C97.0038 68.3524 95.446 64.1703 95.446 58.9899V4.59375H108.063V58.9899C108.063 60.3943 108.468 61.5335 109.278 62.4072C110.088 63.2498 111.24 63.6711 112.736 63.6711C114.231 63.6711 115.384 63.2498 116.194 62.4072C117.004 61.5335 117.409 60.3943 117.409 58.9899V4.59375H130.026ZM143.19 74.8125V4.59375H152.536L168.517 50.0955L165.153 50.1891V4.59375H176.835V74.8125H167.489L151.508 29.3108L154.872 29.2171V74.8125H143.19ZM203.084 74.8125H190.467V4.59375H203.084V74.8125ZM221.144 74.8125V17.2331H210.864V4.59375H244.041V17.2331H233.761V74.8125H221.144Z" fill="#3E89C8"/>
</g>
<defs>
<clipPath id="clip0_144_109">
<rect width="245" height="91" fill="white"/>
</clipPath>
</defs>
</svg>
